<?xml version="1.0" encoding="UTF-8" standalone="no"?>
<svg
   version="1.0"
   width="257.95264"
   height="194.94804"
   viewBox="0 0 257.95264 194.94805"
   preserveAspectRatio="xMidYMid meet"
   id="svg107"
   sodipodi:docname="favicon.svg"
   inkscape:version="1.1 (c4e8f9e, 2021-05-24)"
   xmlns:inkscape="http://www.inkscape.org/namespaces/inkscape"
   xmlns:sodipodi="http://sodipodi.sourceforge.net/DTD/sodipodi-0.dtd"
   xmlns="http://www.w3.org/2000/svg"
   xmlns:svg="http://www.w3.org/2000/svg">
  <defs
     id="defs111">
    <filter
       style="color-interpolation-filters:sRGB"
       inkscape:label="Blur"
       id="filter14353"
       x="-0.040996704"
       y="-0.15129091"
       width="1.0819933"
       height="1.3025818">
      <feGaussianBlur
         stdDeviation="20 20"
         result="blur"
         id="feGaussianBlur14351" />
    </filter>
    <filter
       style="color-interpolation-filters:sRGB"
       inkscape:label="Blur"
       id="filter14357"
       x="-0.043933161"
       y="-0.15000001"
       width="1.0878663"
       height="1.3">
      <feGaussianBlur
         stdDeviation="20 20"
         result="blur"
         id="feGaussianBlur14355" />
    </filter>
    <filter
       style="color-interpolation-filters:sRGB"
       inkscape:label="Blur"
       id="filter14361"
       x="-0.10666338"
       y="-0.22554664"
       width="1.2133268"
       height="1.4510933">
      <feGaussianBlur
         stdDeviation="20 20"
         result="blur"
         id="feGaussianBlur14359" />
    </filter>
    <filter
       style="color-interpolation-filters:sRGB"
       inkscape:label="Blur"
       id="filter14409"
       x="-4.8788815"
       y="-5.4489913"
       width="10.757763"
       height="11.897982">
      <feGaussianBlur
         stdDeviation="20 20"
         result="blur"
         id="feGaussianBlur14407" />
    </filter>
    <filter
       style="color-interpolation-filters:sRGB"
       inkscape:label="Blur"
       id="filter14413"
       x="-0.24621943"
       y="-0.18608069"
       width="1.4924389"
       height="1.3721614">
      <feGaussianBlur
         stdDeviation="20 20"
         result="blur"
         id="feGaussianBlur14411" />
    </filter>
    <filter
       style="color-interpolation-filters:sRGB"
       inkscape:label="Blur"
       id="filter14417"
       x="-0.20091268"
       y="-0.10769583"
       width="1.4018254"
       height="1.2153918">
      <feGaussianBlur
         stdDeviation="20 20"
         result="blur"
         id="feGaussianBlur14415" />
    </filter>
    <filter
       style="color-interpolation-filters:sRGB"
       inkscape:label="Blur"
       id="filter23905"
       x="-0.088272028"
       y="-0.1346149"
       width="1.1764435"
       height="1.2675636">
      <feGaussianBlur
         stdDeviation="50 50"
         result="blur"
         id="feGaussianBlur23903" />
    </filter>
  </defs>
  <sodipodi:namedview
     id="namedview109"
     pagecolor="#ffffff"
     bordercolor="#666666"
     borderopacity="1.0"
     inkscape:pageshadow="2"
     inkscape:pageopacity="0.0"
     inkscape:pagecheckerboard="0"
     showgrid="false"
     inkscape:zoom="0.61745981"
     inkscape:cx="-215.39863"
     inkscape:cy="566.02874"
     inkscape:window-width="1792"
     inkscape:window-height="1067"
     inkscape:window-x="0"
     inkscape:window-y="25"
     inkscape:window-maximized="1"
     inkscape:current-layer="layer4"
     fit-margin-top="0"
     fit-margin-left="0"
     fit-margin-right="0"
     fit-margin-bottom="0" />
  <g
     inkscape:groupmode="layer"
     id="layer4"
     inkscape:label="Lute"
     style="display:none"
     transform="translate(-966.34732,-576.03922)">
    <path
       d="m 1088.878,1024.8899 c -7.5655,-3.4656 -13.327,-8.5496 -19.394,-13.7299 -14.0986,-14.68365 -22.2473,-33.89817 -29.3224,-52.69692 -5.46,-14.99369 -7.7724,-31.29874 -4.3066,-47.02616 0.4784,-9.29661 5.8557,-16.78964 8.9515,-25.24236 6.5961,-13.62806 13.9201,-27.55103 24.986,-38.09396 6.4162,-5.78117 11.4956,-13.07899 18.1409,-18.77585 7.9661,-8.07887 17.3226,-14.57034 25.9261,-21.89245 10.9793,-2.98556 20.5598,-9.92861 31.0469,-14.40712 19.8372,-9.44294 40.2969,-18.75391 62.2552,-21.68026 8.8476,1.36501 18.7891,-2.51449 23.0026,-10.76549 6.3944,-5.51759 10.135,-12.9789 15.7941,-19.51416 6.7042,-8.88987 13.6284,-17.54431 20.1073,-26.59448 8.8099,-11.24489 17.5971,-22.58092 26.6643,-33.52131 8.4874,-7.08992 12.1054,-19.65128 23.6417,-22.90762 3.9394,-3.83618 13.4927,-1.01484 15.3815,-4.30115 -7.6061,-7.51141 6.2641,-2.04628 8.7504,1.35915 4.3699,1.54178 16.3848,0.77366 9.6494,-5.53344 4.1558,-5.32505 10.7325,6.35686 16.9368,3.0251 5.8136,3.11294 19.3753,13.00116 5.6298,15.18024 -8.2056,2.48866 -2.8338,8.04575 -1.1237,12.44076 -5.8812,0.84575 -10.8432,-8.49905 -17.7884,-2.98431 -6.0886,0.7932 -9.6497,4.5052 -3.3006,8.75873 -2.1592,6.14288 -10.976,-5.05759 -14.8359,-5.81386 -8.9768,1.67211 -12.4315,11.57141 -17.1174,18.22096 -6.1785,10.78822 -12.3503,21.56587 -18.998,32.05978 -9.1998,18.14341 -21.5148,34.56886 -29.2945,53.4467 -3.8915,8.68048 -7.2614,18.13157 -4.9393,27.75292 3.9117,26.56377 2.1871,53.58824 0.2153,80.2478 -1.1978,18.75737 -6.0305,37.02034 -12.925,54.45124 -7.9035,21.3654 -17.0982,43.42824 -34.881,58.53912 -7.7876,7.5509 -16.5599,13.9462 -25.9723,19.2995 -8.114,5.2422 -18.0099,7.1672 -27.143,10.1548 -9.5945,2.3609 -19.9109,4.0801 -29.683,2.3048 -7.765,-1.5264 -16.5395,-1.6934 -24.575,-3.8806 -7.3465,-2.0164 -14.7635,-4.2156 -21.4799,-7.8804 z m 21.3192,-10.3314 c 9.0733,0.7753 18.719,0.3414 27.4128,3.7066 18.4923,-0.6217 34.8711,-12.3024 46.2254,-26.24342 17.9985,-20.4501 28.0138,-46.21425 37.7232,-71.27967 4.9546,-12.55151 7.7358,-25.75677 11.0887,-38.7727 3.2837,-8.74731 4.5828,-18.32945 5.2382,-27.59941 0.5199,-8.09111 1.4853,-16.17799 2.1773,-24.10938 -0.4416,-5.47916 3.6821,-15.00955 -2.1302,-17.66582 -4.3365,7.0674 -11.5567,13.24999 -13.2185,21.46081 1.544,10.09288 -2.2223,19.95789 -6.7173,28.7987 -7.1829,8.99139 -16.5479,16.19843 -27.1649,20.68133 -7.5816,4.12634 -10.6829,12.84535 -16.2125,19.0975 -13.255,16.78623 -24.8472,34.83466 -36.9713,52.39427 -3.2037,8.26372 -11.5827,13.51445 -14.1044,22.02132 1.8219,3.41593 10.2848,11.17301 7.821,12.72516 -7.2235,-5.21944 -15.9185,-8.05732 -20.8874,-15.71175 -7.6927,-7.45431 -14.5372,-15.73243 -22.229,-23.09557 -3.1738,-6.63089 -13.2009,-14.50224 -10.7494,-21.56269 5.4726,3.19638 12.0287,17.65888 16.7029,4.84038 4.9381,-7.19599 10.6224,-13.62927 16.8665,-19.91688 6.0927,-6.56791 12.5481,-12.07263 17.1587,-19.83972 5.6166,-9.70387 14.2389,-17.1894 20.697,-26.32666 7.9736,-6.24581 1.2254,-16.46565 5.7052,-24.34891 6.4857,-16.7584 19.9331,-30.81733 36.0996,-38.50617 7.9883,0.308 15.0815,-7.32286 16.4868,-14.03075 -8.9604,-0.7109 -17.2864,3.46692 -25.871,5.40242 -7.9613,2.88587 -15.4037,4.43555 -22.7889,8.70576 -14.2056,5.64868 -28.002,13.14154 -39.1637,23.6959 -7.6458,4.92531 -12.8255,12.49534 -20.0922,17.88905 -8.3092,7.56453 -14.4488,17.08363 -21.411,25.81504 -5.3212,6.66098 -10.9386,13.46754 -14.4689,21.5507 -4.1935,7.94425 -9.0637,15.97967 -8.7607,25.3275 -0.7662,20.7206 1.8774,42.49083 13.382,60.25285 9.1418,15.34956 22.6775,29.79841 40.4197,34.58581 z m 59.6553,15.3276 c 8.9885,-2.1159 17.2768,-6.6504 24.6635,-11.3022 15.1711,-8.6217 27.649,-21.65125 37.6485,-35.83748 10.3952,-16.54625 17.2778,-35.05392 23.416,-53.52212 1.5697,-10.09196 5.3319,-19.84416 5.3693,-30.11134 3.3017,-15.01646 3.2259,-30.5375 3.994,-45.8307 0.028,-17.7928 -0.3517,-35.85392 -4.7044,-53.18023 -8.7859,-2.30828 -1.5825,11.84779 -2.7771,16.81752 1.8571,8.32181 -0.767,16.85842 -0.991,25.27264 -1.3837,17.36229 -5.3942,34.36089 -8.1581,51.52892 -3.6384,17.36604 -8.4689,34.555 -15.4983,50.85459 1.071,6.82772 -7.9381,12.28864 -9.3884,19.71852 -3.889,7.88173 -4.978,15.9229 -11.8377,21.83745 -1.6504,6.08638 -9.1791,12.59688 -11.0396,15.55253 -4.7204,4.8076 -10.6715,11.5142 -17.121,15.3511 -4.6354,1.2432 -6.1833,5.634 -7.4507,7.6443 -5.7908,1.6217 -16.4291,3.8258 -18.5535,7.4472 4.2237,-0.075 8.346,-1.2603 12.4284,-2.2402 z m -43.467,-67.114 c 9.3558,-12.71964 19.6048,-24.81078 27.573,-38.49575 9.099,-12.52151 17.5452,-25.51136 26.6255,-38.04916 -7.7458,-6.18013 -12.9201,7.69675 -18.5186,11.84638 -10.6206,10.49756 -17.7544,23.78061 -26.2563,35.88382 -8.0663,9.18958 -14.0423,19.97634 -21.0176,29.96894 -2.2431,10.84584 7.2048,8.03299 11.594,-1.15423 z m -10.3442,-6.95751 c 10.803,-14.63572 21.8902,-29.07625 31.8047,-44.3497 6.1432,-9.52583 14.3559,-17.77101 19.3837,-27.96326 -1.5285,-6.72249 -8.5087,-7.51824 -10.6389,-0.30436 -13.3778,18.06483 -26.1883,36.54361 -39.819,54.41969 -2.7338,7.05347 -11.1673,12.32406 -12.4403,18.97548 3.3893,7.42927 8.4636,5.80476 11.7098,-0.77785 z m -12.5737,-8.72671 c 9.5588,-12.26792 19.483,-24.26363 29.4711,-36.16376 3.7042,-8.33921 11.1645,-14.50392 15.9937,-22.29651 3.3998,-6.3264 14.2654,-13.96211 6.6549,-21.10766 -6.452,3.20253 -10.2104,11.02088 -14.9988,16.59366 -14.8628,19.69205 -29.7598,39.39981 -46.0388,57.94588 -4.122,4.30872 6.61,12.51342 8.9179,5.02839 z m 74.2318,-74.71737 c 8.1872,-9.46716 14.5545,-20.36935 22.3902,-30.14587 4.5982,-6.80757 10.5751,-12.9149 13.9276,-20.43459 -6.3145,-10.91714 -13.7453,5.97515 -18.0307,10.68373 -10.4208,12.6189 -20.8946,25.30248 -29.966,38.94498 1.0447,5.41198 9.2374,6.12288 11.6789,0.95175 z m 5.3032,7.35764 c 8.6923,-1.8682 10.0386,-12.77944 15.75,-18.47506 6.7285,-10.03478 14.8927,-19.2793 19.8217,-30.39333 -1.1357,-10.65529 -8.5482,5.03963 -11.5989,8.02088 -8.5933,13.12788 -19.3365,24.78789 -27.1333,38.42019 -1.3728,2.33568 1.8131,2.27456 3.1605,2.42732 z m -16.5444,-15.0672 c 12.5059,-16.08858 25.1198,-32.11447 37.5598,-48.2404 -8.528,-4.93062 -15.0117,6.19898 -19.7506,12.10242 -6.4394,9.3841 -14.8421,17.14282 -21.3028,26.48064 -6.2041,4.16062 -4.1473,21.74703 3.4936,9.65734 z m 36.6498,7.48641 c 9.0675,-7.73892 17.8045,-18.55721 17.6489,-31.0219 -7.2271,2.29564 -10.6684,13.19856 -15.7689,19.25989 -3.4472,5.58855 -10.2061,11.59081 -11.3611,16.99255 3.6537,-0.4693 6.5657,-3.21268 9.4811,-5.23054 z m -42.0022,-22.31114 c 5.7973,-6.58909 10.0639,-14.02831 16.4844,-20.21883 3.6765,-2.97546 12.9917,-16.26982 2.0298,-10.18228 -6.9993,4.20915 -14.6676,8.55146 -17.5992,16.74257 -0.9202,3.78762 -7.323,14.44541 -3.1251,15.23528 l 1.0317,-0.71025 z m 69.4184,-35.17908 c 4.6434,-3.35601 5.3845,-17.17434 -0.9972,-7.77223 -1.9887,5.11828 -12.9538,14.0946 -6.183,17.82299 3.2447,-2.59406 4.9437,-6.63477 7.1802,-10.05076 z m -10.9447,1.12455 c 2.3396,-5.16354 14.9981,-16.97356 5.9947,-19.24796 -4.5478,5.73418 -17.2575,13.91189 -7.8406,20.81091 0.9062,0.22092 1.291,-1.42109 1.8459,-1.56295 z m -9.1734,-8.12763 c 2.3141,-4.95871 11.4181,-12.25191 8.2323,-16.47813 -6.446,0.97744 -14.9652,10.25684 -14.3043,15.97415 1.7628,0.93941 4.2417,1.63589 6.072,0.50398 z m 37.7262,-21.49307 c 5.1724,-6.15913 8.3472,-13.91759 12.8418,-20.59517 18.6967,-28.31487 37.9004,-56.32859 57.1107,-84.31242 3.0555,-2.73043 3.863,-9.77296 -0.3065,-3.00502 -8.5925,12.93548 -17.0058,26.0009 -26.9147,37.98995 -16.8228,22.45337 -32.5858,45.68456 -47.806,69.24623 0.7118,1.39482 4.3621,2.93425 5.0747,0.67643 z m -1.3633,-12.62779 c 4.4263,-6.89255 9.6471,-13.36219 12.5215,-21.06264 14.8702,-22.93847 33.1971,-43.408 47.8648,-66.49345 1.4654,-4.29522 12.6668,-11.60067 8.028,-14.58777 -7.5626,8.35701 -13.4678,18.18505 -20.7198,26.86601 -9.8767,13.12882 -18.1312,27.50536 -28.886,39.93391 -6.5777,6.52853 -11.0157,15.25297 -16.9035,22.54713 -3.3976,6.66825 -11.7029,13.68303 -10.5214,21.17211 4.0068,1.54485 6.349,-6.27025 8.6164,-8.3753 z m -11.6276,-0.50751 c 13.589,-20.2604 29.4448,-38.90969 43.4375,-58.9002 4.8552,-7.22295 10.7636,-13.93461 14.3371,-21.89674 -6.1436,3.03458 -10.9604,11.7207 -16.1604,17.32311 -16.3336,20.66212 -32.792,41.36358 -46.5248,63.8814 -2.3297,5.11232 4.7259,3.37402 4.9106,-0.40757 z m 68.0769,-92.60084 c 1.6237,-2.56135 11.2851,-14.48801 3.9811,-9.73653 -2.4866,6.12136 -12.7638,15.87674 -12.4072,19.19539 3.1344,-2.82234 6.0951,-5.9318 8.4261,-9.45886 z m 22.4655,-15.23512 c 10.7047,-6.18613 -13.5116,2.88535 -1.5802,0.68687 z m 20.7175,2.43248 c 6.795,-1.91861 20.6974,-0.56957 21.7035,-9.3403 -4.2303,-4.71409 -16.6218,1.81442 -17.5328,4.45995 3.5289,-0.61714 10.9669,1.14209 3.0102,2.50224 -5.6056,-0.48515 -18.5914,1.75604 -18.7067,3.92966 3.8686,-0.27744 7.6979,-0.95153 11.5258,-1.55155 z m -4.894,-4.97384 c -3.6302,-0.62812 -13.7458,5.46737 -4.5545,2.27984 1.419,-0.74617 3.5415,-0.91328 4.5545,-2.27984 z"
       id="path11074"
       style="fill:#000000" />
  </g>
  <g
     inkscape:groupmode="layer"
     id="layer1"
     inkscape:label="Bird"
     style="display:inline"
     transform="translate(-1116.2784,-676.0551)">
    <g
       id="g113"
       transform="rotate(90,1374.731,847.62838)">
      <path
         d="m 1238.231,956.22838 c -1,-1.1 -1.6,-3 -1.4,-4.3 0.6,-4.7 9.8,-2.7 9.8,2.2 0,4 -5.4,5.4 -8.4,2.1 z"
         id="path11090"
         style="display:inline;fill:#000000" />
      <path
         d="m 1321.431,1105.4284 c -5.8,-0.4 -5.8,-0.4 -5.8,-8.3 0,-8 -0.6,-9.3 -3,-6.5 -0.7,0.9 -2.6,2.5 -4.1,3.6 -2.8,2 -2.8,2 -4.8,-2.7 -2.4,-5.2 -2.5,-5.8 -1.2,-5 1.4,0.9 7.3,-2 9.9,-4.7 2.4,-2.5 2.4,-2.5 -10.5,-3.1 -21.0007,-0.4964 -34.6554,-8.6535 -50.8,-15.6 -2.8614,3.2211 -5.0714,3.9486 -8.4,5 -3.2,0 -9.3,-5 -13.2,-10.8 -2.4,-3.5 -4.6,-6.5 -5,-6.8 -0.4,-0.2 -1.8,1.4 -3.3,3.6 -4.6,7 -12.4076,1.3924 -14.8,-7.1 -1.2962,-5.9992 -2.6992,-15.0181 -3.2,-26.9 -0.6243,-10.0983 2.7404,-45.09861 10.1,-50.90002 0.8,-0.4 1.7,-2.8 2,-5.3 0.5,-4.1 0.3,-4.7 -2.8,-7.2 -1.9,-1.6 -4.9,-4.6 -6.6,-6.8 -3.3,-4 -3.3,-4 0.3,-8.4 2,-2.4 3.9,-4.4 4.3,-4.4 0.4,0 1.3,2 2,4.5 1.7,5.9 7.6,13.6 9.7,12.8 1.3,-0.5 1.1,-1 -0.9,-3.2 -3.5,-3.7 -5.2,-7.6 -6.6,-14.8 -1,-5.1 -0.9,-6.8 0.2,-9.5 1.7,-3.8 6.2,-8.3 9.5,-9.3 1.4,-0.4 2.2,-1.4 2.2,-2.8 0.1,-3.5 1.8,-20.5 2.9,-28.8 2.2,-16.6 8.6,-37.9 11.4,-37.9 1.4,0 9.6,7.7 14.7,14 5.5,6.7 18.9,29.8 25.3,43.5 4.1675,8.86712 23.7917,70.02221 29.7,67 9.887,-5.33115 16.6496,-10.98612 24.1,-17.1 5.5,-4.4 10.3,-9.6 23.7,-25.7 7.5849,-10.2351 18.7224,-24.90225 21.7008,-36.90042 3.6689,-11.684 6.638,-15.06547 8.9992,-34.99958 1.1273,-10.43394 2.0379,-8.74044 3.9,-1.9 1.0118,3.77866 1.9,5 3.9,22.1 1.3,11.6 1.6,43.9 0.5,59.5 -0.9287,11.68973 -3.6606,22.33178 -6.2,33.7 2.6566,12.66836 5.0527,32.22762 1.6,48.30002 -2.7,11.3 -4.5,16.3 -8.4,24 -12.0016,25.0317 -37.8911,30.8528 -51.5,33.2 -5.9,1 -9.3,2.1 -9.3,2.9 3.5903,5.2463 8.4903,7.9856 13.8,10.9 0.6,0.5 -2.8,6.5 -3.6,6.5 -0.5,0 -2.3,-1.1 -4.2,-2.5 -4,-2.9 -5.2,-2.5 -3.9,1.5 3.4,11 3.2,10.1 2.2,9.8 -0.5,-0.1 -3.4,-0.3 -6.5,-0.5 z m 14.9,-43.5 c 6.7605,-2.2383 13.1811,-5.4363 18.3,-9.7 4.4,-3.9 4.4,-3.9 1.6,-8.1 -8.3,-12.6 -12.1,-21.4 -14.6,-33.7 -1.2,-6 -1.4,-6.2 -3.9,-5.7 -11.6971,3.6393 -27.5794,6.6521 -37.4,2.4 -12.916,-6.2676 -25.8748,-13.32642 -35.3,-22.90002 -3.7,-3.8 -3.7,-3.8 -6.4,-0.8 -2.8,3.2 -7.3084,4.20168 -14.6,4.3 -7.1884,-0.18352 -11.5834,-4.48984 -19.4,-9.9 0,1.3 5.3,10.8 6.5,11.7 0.8,0.6 1.6,2.2 1.7,3.6 -1.2214,4.40252 -4.8906,5.46286 -9.4,6.90002 -2.3,0.2 -7.8,-17.50002 -7.8,-24.80002 0,-1.7 -0.4,-3.1 -0.9,-3.1 -3.6155,7.21447 -3.2478,13.13433 -5,22 -2.6115,15.53392 -2.8336,34.02032 -0.2,44.90002 1.8,7.5 3.4,11.9 4.9,13.4 2.2,2.1 2.2,2.1 4.8,-0.4 2.4,-2.4 2.6,-3.5 3.1,-13.5 0.6,-10.2 1.7,-13.9 3.5,-11.1 0.4,0.7 0.8,5.2 0.8,10 -0.3108,10.0842 4.3593,21.1567 13.3,25.3 3.9,1.8 4,1.8 5.7,-0.3 2.8,-3.5 1.4,-13.2 -3.5,-23.7 -9.5,-20.8 -12.3,-29.2 -11.1,-33.9 1,-4.1 2.2,-3.2 3.5,2.6 2.3,10.3 13.5,32.5 19.9,39.3 6.5,7.1 14.5,10.6 32.5,14.5 19.1,4.1 38,4.4 49.4,0.7 z m 27.3,-17.8 c 4.7078,-4.0086 6.8109,-9.0118 8.8113,-14.6172 4.1566,-9.5138 6.6012,-25.0717 6.5887,-37.58282 0.1,-8.5 -0.7,-10.3 -3.2,-7.3 -2,2.4 -9.2,7 -18.2,11.6 -16,8.10002 -14.8,6.70002 -12.9,14.90002 1,4.4 6.4,18.1 9.7,24.8 3.6,7.1 5.8784,11.0283 9.2,8.2 z m -31.1,-42.1 c 26.3,-7.60002 44.1,-24.70002 50.7,-48.40002 4.9282,-15.63694 6.0137,-37.23625 6.2,-48.5 -0.3,-9.4 -0.3,-9.4 -4.1,-2.4 -6.6218,13.48679 -12.9004,25.4398 -18.8,37.4 -4.8053,10.86127 -12.2798,21.46216 -18.2,30.5 -10.9145,15.11576 -19.8793,22.69244 -32.6,34.20002 -1.7,1.3 8,-0.2 16.8,-2.8 z m -27.3,-6.40002 c -0.915,-11.52783 -4.1317,-22.92224 -6.6,-33.9 -1.3914,-8.45388 -24.7779,-64.68312 -27.7467,-68.73641 -3.7501,-5.56034 -13.6952,-27.43341 -19.8533,-28.86359 -10.502,11.19178 -10.3181,31.85872 -10.9,43.7 -0.6,13.2 -0.6,13.2 3,19.8 1.5966,3.79623 3.1765,8.95039 3,10.5 -0.6,4.19246 -0.6953,4.58815 1.8047,5.48815 2.7844,1.61037 5.3452,4.58618 9.9953,11.81185 2.7,4.6 5.2,15.2 4.5,19.1 -0.4,2 0.7,3.6 6.1,8.8 6.8063,6.2545 27.3498,20.01242 35.5,20.80002 1.8,0 1.8,-0.6 1.2,-8.50002 z m 43.2,-32.5 c 12.7049,-19.76914 26.6335,-42.65815 33.6,-63.9 6.7175,-18.4969 2.6748,-12.87958 -2.3,0 -4.1,10.8 -11.8,22.2 -26.2,39 -12.6,14.8 -32.2,31.9 -42.2,37.1 -6.1049,3.22546 -2.6391,9.29773 -2.2,15.4 0.8,9.80002 1.3,12.40002 2.5,12.40002 12.6996,-9.34779 29.4097,-27.77873 36.8,-40.00002 z m -95.2,17.3 c 3.6,-3.3 3.7,-3.6 3.6,-10.6 0,-5.6 -0.5,-8.1 -2.3,-11.2 -3.4,-6 -7.6,-10.1 -11.9,-11.5 -3.4,-1.1 -4.3,-1 -7.7,0.7 -4.4,2.3 -7,7 -8.3,15 -0.8,4.7 -0.6,6.1 1.2,9.9 2.4,5.3 6.9,9 12.9,10.7 5.8,1.7 8.1,1.2 12.5,-3 z m -13.4,-38.4 c 1.7,-0.9 1.9,-1.7 1.3,-5.7 -0.4,-2.6 -1.3,-5.9 -2.1,-7.4 -1.5,-2.8 -3.4,-3.8 -3.4,-1.6 0,1.8 -3.1,4.8 -5,4.8 -4.9,0 -5.7,-7.9 -1,-9 2.5,-0.6 2.5,-0.6 0.2,-1.4 -3.3,-1.1 -7.2962,0.29832 -9.7,3.7 -2.8008,5.18868 -2.4,11.1 -0.4,16.6 1,3.1 2.9,6.4 4.2,7.3 2.1,1.7 2.3,1.6 6.2,-2.2 2.5723,-3.54103 6.4369,-3.50339 9.7,-5.1 z"
         id="path11088"
         style="display:inline;fill:#000000"
         sodipodi:nodetypes="csccccccccccccccccccscccccccssccccccccccccccccsccccccccccccccsccsccccccccccccccccsccscccscccccccccccccccccccccccccccccccccccccccccssccccccc" />
    </g>
  </g>
</svg>
