<?xml version="1.0" encoding="UTF-8" standalone="no"?>
<svg
   version="1.0"
   width="1800"
   height="1200"
   viewBox="0 0 1800 1200"
   preserveAspectRatio="xMidYMid meet"
   id="svg107"
   sodipodi:docname="logo.svg"
   inkscape:version="1.1 (c4e8f9e, 2021-05-24)"
   xmlns:inkscape="http://www.inkscape.org/namespaces/inkscape"
   xmlns:sodipodi="http://sodipodi.sourceforge.net/DTD/sodipodi-0.dtd"
   xmlns="http://www.w3.org/2000/svg"
   xmlns:svg="http://www.w3.org/2000/svg">
  <defs
     id="defs111">
    <filter
       style="color-interpolation-filters:sRGB"
       inkscape:label="Blur"
       id="filter14353"
       x="-0.040996705"
       y="-0.15129091"
       width="1.0819934"
       height="1.3025818">
      <feGaussianBlur
         stdDeviation="20 20"
         result="blur"
         id="feGaussianBlur14351" />
    </filter>
    <filter
       style="color-interpolation-filters:sRGB"
       inkscape:label="Blur"
       id="filter14357"
       x="-0.043933163"
       y="-0.15"
       width="1.0878663"
       height="1.3">
      <feGaussianBlur
         stdDeviation="20 20"
         result="blur"
         id="feGaussianBlur14355" />
    </filter>
    <filter
       style="color-interpolation-filters:sRGB"
       inkscape:label="Blur"
       id="filter14361"
       x="-0.10666339"
       y="-0.22554665"
       width="1.2133268"
       height="1.4510933">
      <feGaussianBlur
         stdDeviation="20 20"
         result="blur"
         id="feGaussianBlur14359" />
    </filter>
    <filter
       style="color-interpolation-filters:sRGB"
       inkscape:label="Blur"
       id="filter14409"
       x="-4.8788816"
       y="-5.4489912"
       width="10.757763"
       height="11.897982">
      <feGaussianBlur
         stdDeviation="20 20"
         result="blur"
         id="feGaussianBlur14407" />
    </filter>
    <filter
       style="color-interpolation-filters:sRGB"
       inkscape:label="Blur"
       id="filter14413"
       x="-0.24621943"
       y="-0.18608069"
       width="1.4924389"
       height="1.3721614">
      <feGaussianBlur
         stdDeviation="20 20"
         result="blur"
         id="feGaussianBlur14411" />
    </filter>
    <filter
       style="color-interpolation-filters:sRGB"
       inkscape:label="Blur"
       id="filter14417"
       x="-0.20091269"
       y="-0.10769583"
       width="1.4018254"
       height="1.2153917">
      <feGaussianBlur
         stdDeviation="20 20"
         result="blur"
         id="feGaussianBlur14415" />
    </filter>
    <filter
       style="color-interpolation-filters:sRGB"
       inkscape:label="Blur"
       id="filter23905"
       x="-0.088272024"
       y="-0.1346149"
       width="1.1764435"
       height="1.2675636">
      <feGaussianBlur
         stdDeviation="50 50"
         result="blur"
         id="feGaussianBlur23903" />
    </filter>
  </defs>
  <sodipodi:namedview
     id="namedview109"
     pagecolor="#ffffff"
     bordercolor="#666666"
     borderopacity="1.0"
     inkscape:pageshadow="2"
     inkscape:pageopacity="0.0"
     inkscape:pagecheckerboard="0"
     showgrid="false"
     inkscape:zoom="0.61745981"
     inkscape:cx="851.87731"
     inkscape:cy="645.38613"
     inkscape:window-width="1792"
     inkscape:window-height="1067"
     inkscape:window-x="0"
     inkscape:window-y="25"
     inkscape:window-maximized="1"
     inkscape:current-layer="layer3" />
  <g
     inkscape:groupmode="layer"
     id="layer3"
     inkscape:label="Background"
     style="display:inline"
     transform="translate(149.931,100.01588)">
    <rect
       style="fill:#000000;stroke-width:1.20159"
       id="rect10592"
       width="1800"
       height="1200"
       x="-149.92526"
       y="-99.920601" />
    <path
       style="fill:#4c004d;fill-opacity:1;stroke:#000000;stroke-width:1px;stroke-linecap:butt;stroke-linejoin:miter;stroke-opacity:1;filter:url(#filter23905)"
       d="M 173.29063,861.59453 477.76389,586.27297 97.172316,617.0442 393.54788,484.24204 92.3137,328.76633 506.91558,412.98234 328.76633,93.933239 537.68681,267.22387 618.66374,48.586158 701.26021,490.72019 855.11638,50.205696 863.21407,280.18018 1049.461,58.303389 973.3427,351.43988 1370.1297,66.401082 1222.7516,309.33187 l 221.8768,-11.33677 -343.3422,166.81248 353.0595,66.40108 -474.52485,42.108 437.27545,223.49633 -255.8871,-48.58616 82.5964,205.6814 L 986.299,707.73837 994.3967,931.23469 848.63822,597.60974 694.78206,906.94161 672.10852,589.51205 456.70988,929.61515 463.18804,720.69467 Z"
       id="path23666"
       transform="matrix(1.3171167,0,0,1.3137631,-295.03861,-127.3141)" />
  </g>
  <g
     inkscape:groupmode="layer"
     id="g13797"
     inkscape:label="Testo sfocato"
     style="display:inline"
     transform="translate(149.931,100.01588)">
    <g
       aria-label="The"
       id="text13783"
       style="font-size:250.667px;line-height:1.25;fill:#f4eed7;filter:url(#filter14361)">
      <path
         d="M 685.11901,102.2758 V 249.668 H 635.98827 V 102.2758 H 595.63089 V 60.665076 H 725.4764 V 102.2758 Z"
         style="font-weight:bold;font-family:Futura;-inkscape-font-specification:'Futura Bold'"
         id="path288" />
      <path
         d="m 742.82334,41.614383 h 45.37073 v 95.754797 q 9.27467,-11.28002 18.80002,-15.04002 9.52535,-4.01067 22.30936,-4.01067 24.3147,0 36.59739,13.53602 12.53335,13.28535 12.53335,36.09604 V 249.668 h -45.37073 v -64.92276 q 0,-9.77601 -1.504,-15.79202 -1.504,-6.01601 -5.01334,-9.27468 -6.01601,-5.264 -14.53869,-5.264 -11.53068,0 -17.79736,7.01867 -6.016,6.76801 -6.016,19.55203 V 249.668 h -45.37073 z"
         style="font-weight:bold;font-family:Futura;-inkscape-font-specification:'Futura Bold'"
         id="path290" />
      <path
         d="m 1003.282,166.69722 q -2.256,-9.52535 -9.27466,-15.29069 -7.01867,-5.76534 -17.04535,-5.76534 -10.52802,0 -17.29603,5.51468 -6.51734,5.51467 -8.27201,15.54135 z m -53.14138,26.32004 q 0,29.32804 27.57337,29.32804 14.78935,0 22.30941,-12.03202 h 43.8667 q -13.2854,44.11739 -66.42678,44.11739 -16.29336,0 -29.82937,-4.76267 -13.53602,-5.01334 -23.31204,-14.03735 -9.52534,-9.02402 -14.78935,-21.55737 -5.26401,-12.53335 -5.26401,-28.0747 0,-16.04269 5.01334,-28.82671 5.01334,-13.03468 14.28802,-22.05869 9.27468,-9.02402 22.30937,-13.78669 13.28535,-5.01334 29.82937,-5.01334 16.29336,0 29.32805,5.01334 13.0347,4.76267 22.0587,14.03735 9.024,9.27468 13.7867,22.8107 4.7626,13.28535 4.7626,30.08004 v 4.76268 z"
         style="font-weight:bold;font-family:Futura;-inkscape-font-specification:'Futura Bold'"
         id="path292" />
    </g>
    <g
       aria-label="Hungry"
       id="text13789"
       style="font-size:400px;line-height:1.25;fill:#f4eed7;filter:url(#filter14357)">
      <path
         d="m 142.24118,280.98382 v 66.4 h 106.4 v -80 h 26.8 v 240 h -26.8 v -133.6 h -80.4 v 120.4 l -13.2,13.2 h -52.8 l -13.600004,-13.6 v -212.8 l 13.600004,-13.6 h 26.4 z"
         style="font-family:Computerfont;-inkscape-font-specification:Computerfont"
         id="path275" />
      <path
         d="m 455.54743,507.38382 h -132.8 l -13.6,-13.6 v -159.6 l 13.6,-13.6 h 26 l 13.6,13.6 v 53.2 l 26.8,26.8 v 66.4 h 53.2 v -160 h 26.8 v 173.2 z"
         style="fill:none"
         id="path277" />
      <path
         d="m 627.84743,347.38382 h -80 v 40.4 l 26.4,26.4 v 79.6 l -13.6,13.6 h -52.4 l -13.6,-13.6 v -159.6 l 13.6,-13.6 h 132.4 l 13.6,13.6 0.4,173.2 h -26.8 z"
         style="font-family:Computerfont;-inkscape-font-specification:Computerfont"
         id="path279" />
      <path
         d="m 817.00368,480.58382 v -133.2 h -80 v 40 l 26.4,26.4 v 66.8 z m 0,80 v -53.2 h -119.6 l -13.6,-13.6 v -159.6 l 13.6,-13.6 h 132.8 l 13.2,13.2 v 240 l -13.6,13.6 h -146.4 v -26.8 z"
         style="font-family:Computerfont;-inkscape-font-specification:Computerfont"
         id="path281" />
      <path
         d="m 882.46618,507.38382 -13.6,-13.6 v -159.6 l 13.6,-13.6 h 119.60002 v 26.8 h -80.00002 v 40 l 26.4,26.4 v 80 l -13.6,13.6 z"
         style="font-family:Computerfont;-inkscape-font-specification:Computerfont"
         id="path283" />
      <path
         d="m 1181.2099,573.78382 -13.6,13.6 h -146.8 v -26.8 h 133.6 v -53.2 h -120 l -13.6,-13.6 v -159.6 l 13.6,-13.6 h 53.2 l 13.6,13.6 v 80.4 l -26.8,26.8 v 39.2 h 80 v -160 h 26.8 z"
         style="font-family:Computerfont;-inkscape-font-specification:Computerfont"
         id="path285" />
    </g>
    <g
       aria-label="Bards"
       id="text13795"
       style="font-size:450.667px;line-height:1.25;fill:#f4eed7;filter:url(#filter14353)">
      <path
         d="m 303.92998,643.82006 q 10.36534,-9.01334 22.98402,-9.01334 7.66134,0 11.26667,4.95734 -1.352,7.21067 2.704,11.26667 0.45067,0.90134 9.01334,7.66134 5.85867,0.90134 11.71735,0.90134 14.42134,0 41.01069,-9.01334 26.58935,-9.01334 41.0107,-9.46401 7.21067,-0.45067 23.88535,-2.704 15.32268,-1.80267 23.88535,-1.80267 12.16801,0 22.08268,3.15467 42.3627,-0.90133 80.66939,26.58935 24.33602,29.74402 24.33602,58.13604 0,4.50667 -0.45067,9.01334 -15.77334,28.84269 -43.71469,35.6027 -0.45067,2.704 -1.35201,7.66133 19.82935,12.61868 39.6587,25.23736 20.28001,16.22401 19.37868,39.65869 l 1.80267,24.78669 q -2.704,1.80266 -3.60534,8.112 -0.45066,5.85867 -2.25333,8.11201 -10.36534,23.43468 -35.15203,37.85603 -24.33602,14.42134 -55.43204,14.87201 -35.60269,6.30933 -63.09338,2.704 v -1.352 Q 412.99139,924.5856 362.06602,924.5856 q -18.47734,0 -35.60269,1.352 -13.52001,4.056 -30.64536,-2.704 -2.25333,-4.05601 -2.25333,-7.21067 0,-5.40801 7.66134,-9.46401 7.66134,-4.50667 14.42134,-8.11201 11.71734,-0.90133 16.22401,-13.52001 5.85867,-16.22401 9.01334,-18.92801 1.80267,-24.78669 1.80267,-50.02404 0,-25.68802 -1.80267,-49.1227 -1.80266,-5.408 -12.16801,-15.77334 -9.464,-9.01334 -9.464,-16.22402 0,-3.60533 1.80267,-7.66133 65.79738,-9.46401 132.94676,-45.0667 8.56267,3.15467 8.56267,18.02668 0,1.80266 -0.45067,5.408 0,3.60534 0,5.408 0,9.91468 3.15467,14.42135 -2.25333,2.704 -2.704,7.21067 -0.45067,3.15467 -0.45067,9.46401 0.45067,6.30933 0.45067,8.56267 8.11201,9.46401 27.04002,9.46401 10.36534,0 22.53335,-2.70401 25.68802,-5.408 35.60269,-25.68801 3.15467,-2.25334 3.15467,-9.46401 0,-11.26668 0,-12.16801 1.352,0 2.25334,-1.80267 -12.16801,-36.05336 -41.0107,-44.16536 -18.92801,-8.56268 -37.40536,-8.56268 -23.88535,0 -66.24805,21.63202 -42.36269,21.18135 -66.69871,21.18135 -15.77335,0 -31.09602,-5.85867 -15.77335,-10.36534 -18.47735,-18.02668 -0.90134,-3.60534 -0.90134,-7.21067 0,-6.76001 4.50667,-13.52001 4.05601,-4.95734 8.11201,-9.91468 z m 126.18676,92.8374 q -0.45067,-14.87201 -9.01334,-13.52001 -13.97068,6.30934 -13.97068,30.19469 0,4.50667 0.45067,14.42134 0.90133,9.91468 0.90133,14.42135 0,9.46401 -1.80267,15.77334 h -0.90133 v 5.40801 q -0.90133,1.80267 -0.90133,3.60533 0,2.25334 1.352,5.40801 1.80267,3.15467 1.80267,4.50667 0,2.25333 -2.25334,4.056 l 0.90133,69.40272 1.35201,1.80266 q -0.45067,1.35201 -0.45067,2.70401 0,5.85867 11.71734,4.95733 6.30934,-1.80266 10.81601,-11.71734 0.45067,-1.352 0.45067,-11.71734 0,-7.21067 2.704,-9.91467 -5.40801,-9.91468 -1.352,-31.09603 h 1.352 q -3.15467,-18.02668 -3.15467,-48.67203 0,-48.67204 0,-50.02404 z m 124.83475,73.45872 q -16.67467,-28.39202 -64.89604,-27.49068 -2.704,0.90133 -13.97068,0.90133 -9.46401,-0.45067 -12.61867,4.056 0.90133,22.08269 -0.90134,49.1227 h -1.80267 q 5.85867,4.95734 1.80267,19.82935 h -1.80267 q -0.90133,5.40801 -0.90133,10.36534 0,17.57602 19.37868,36.50403 10.36534,6.30934 25.23735,6.30934 11.26668,0 21.18135,-3.60534 16.67468,-3.15467 24.78668,-17.12534 3.60534,-5.85868 10.81601,-28.84269 h 1.352 q 2.70401,-27.94136 -7.66134,-50.02404 z"
         style="font-family:LevelFourteenDruid;-inkscape-font-specification:LevelFourteenDruid"
         id="path264" />
      <path
         d="m 788.58007,758.74015 q 10.36534,4.50666 21.18135,9.91467 11.26667,4.95734 15.77334,13.06934 6.76001,16.67468 6.76001,31.99736 0,7.21067 -1.80267,12.61867 l 1.80267,1.352 2.704,61.74138 q 0.45067,2.704 4.50667,2.704 3.15467,0 6.76,0 2.70401,-4.95733 10.81601,-4.056 2.704,3.15467 2.704,9.91468 0,5.408 0,11.26667 -37.40536,26.13869 -55.43204,26.13869 -3.60533,0 -7.21067,-0.90134 -5.85867,-1.352 -8.112,-13.06934 -2.25334,-12.16801 -8.56268,-12.16801 -2.704,0 -6.76,1.80267 -23.43469,22.53335 -66.69872,22.53335 -11.26667,0 -22.53335,-1.80267 -15.32267,-6.76 -16.67468,-7.66134 -8.112,-5.408 -8.56267,-14.87201 l -1.352,-28.84269 q 2.704,-1.352 3.15467,-5.85867 0.45067,-4.50667 2.25334,-6.30934 12.61867,-20.28001 52.27737,-35.15202 49.1227,-18.47735 59.93871,-26.58935 1.352,-6.30934 1.352,-11.26668 0,-13.97068 -12.16801,-16.22401 -36.50403,-3.15467 -41.91203,14.42134 -4.056,24.33602 -33.34936,31.54669 -16.67468,-7.21067 -18.47735,-21.63201 v -4.50667 q 4.95734,-10.81601 8.11201,-18.92802 22.98402,-25.23735 73.00805,-25.23735 18.92802,0 36.50403,4.05601 z m -5.40801,103.20274 q -2.25333,-2.25334 -2.704,-9.91468 0,-4.95733 0,-10.36534 -0.45066,-4.95734 -3.60533,-6.30934 -18.02668,8.11201 -36.50403,16.67468 -20.73068,10.36534 -29.74402,20.28002 0,1.352 0,13.06934 0,7.66134 3.15467,10.36534 3.15467,10.36534 22.08268,5.85867 14.87201,-7.21067 30.19469,-14.87201 16.67468,-10.36534 17.12534,-24.78668 z"
         style="font-family:LevelFourteenDruid;-inkscape-font-specification:LevelFourteenDruid"
         id="path266" />
      <path
         d="m 936.50448,781.72416 q 12.61868,3.60534 12.61868,18.47735 1.352,1.352 1.80266,8.56267 0.45067,7.21067 4.95734,7.66134 14.87201,-10.36534 29.29336,-20.73068 18.02668,-11.26668 34.70138,-11.26668 6.3093,0 12.6187,1.352 11.2666,5.40801 13.0693,14.42135 v 20.28001 q -2.2533,0.90134 -2.704,5.85867 -0.4507,4.50667 -2.2533,5.85867 -4.056,6.30934 -13.0694,6.30934 2.2533,0 -22.5333,-4.056 -0.9014,-0.45067 -9.01338,-4.95734 -5.85867,-3.15467 -9.91467,-3.15467 -4.056,0 -7.66134,3.15467 -29.74402,11.71734 -27.49069,45.96804 -2.704,4.50667 -2.704,11.71734 0,9.01334 4.95734,22.53335 4.50667,4.056 18.47735,6.76 13.97067,2.704 18.92801,5.40801 8.56267,4.95733 7.66134,16.22401 -7.21067,9.01334 -23.43468,9.01334 -5.40801,0 -16.67468,-1.352 -11.26668,-0.90134 -16.67468,-0.90134 -5.85867,0 -10.36534,0.90134 -23.43469,1.352 -27.49069,0.90133 -17.57601,-0.90133 -25.23735,-8.56267 -2.25334,-10.36534 11.26667,-17.57601 13.97068,-7.66134 12.16801,-17.57602 h 1.352 q 4.05601,-28.39202 -1.352,-40.56003 h 1.352 q 0,-2.25333 0.90134,-9.01334 0.90133,-7.21067 0.90133,-10.816 0,-9.91468 -5.408,-13.06935 -1.80267,-0.45066 -3.60534,-0.45066 -2.704,0 -7.21067,1.80266 -4.056,1.352 -6.30934,1.352 -3.15467,0 -5.85867,-1.80266 -1.352,-4.05601 -1.352,-9.01334 0,-15.32268 10.81601,-18.47735 9.464,-2.704 25.23735,-10.36534 15.77334,-8.11201 25.23735,-10.81601 z"
         style="font-family:LevelFourteenDruid;-inkscape-font-specification:LevelFourteenDruid"
         id="path268" />
      <path
         d="m 1227.2762,649.67873 q 7.6614,0.90134 15.7734,2.25334 8.5627,1.352 11.7173,5.85867 v 33.80002 h -0.9013 q -3.6053,71.20539 0.9013,104.10408 h -0.9013 l -1.8027,22.98401 h -1.352 l -1.8026,72.55739 q 3.6053,2.25334 16.6746,0 9.464,-1.352 9.9147,6.30934 h -1.352 q -0.9013,2.25333 -0.9013,9.46401 0,6.76 -2.704,8.56267 -9.9147,5.85867 -27.4907,11.71734 -29.2934,9.91467 -29.2934,9.91467 -9.0133,0.90134 -12.6186,-10.36534 0,-12.61867 -5.8587,-13.52001 -30.6454,21.63202 -56.7841,21.63202 -9.9146,0 -19.3786,-3.15467 -13.52,-4.50667 -18.4774,-6.30934 -9.9147,-4.50667 -14.872,-10.81601 -24.336,-21.63201 -25.2373,-69.85338 h 1.8026 l 1.352,-22.53335 q 2.2534,-1.80267 2.704,-7.66134 0.4507,-5.85867 2.2534,-8.112 8.112,-20.73069 30.1946,-35.6027 22.5334,-14.87201 45.0667,-14.87201 12.1681,0 26.5894,8.11201 20.28,11.26667 24.7867,13.06934 8.5627,0.45067 8.5627,-9.01334 0,-1.80267 -0.9014,-9.01334 -0.4506,-5.85867 0,-8.56267 -2.704,-7.21067 -2.704,-18.47735 0,-11.26667 2.704,-18.47734 0.4507,1.352 0.4507,-11.71735 0.4507,-7.21067 -5.408,-7.66133 -9.9147,-2.25334 -19.8294,6.76 -3.1546,-2.704 -6.76,-5.408 -3.1546,-2.70401 -3.1546,-6.76001 0,-1.352 0.4506,-3.60533 5.408,-11.71735 26.1387,-20.73069 28.8427,-12.16801 32.448,-14.87201 z m -31.096,169.00012 q -2.2533,-7.66133 -20.7307,-23.88535 -12.6186,-11.26667 -29.744,-11.26667 -7.2107,0 -13.52,2.704 -21.632,9.01334 -25.2373,36.95469 h -1.352 l 1.352,15.77335 q 2.2533,23.88535 25.2373,50.4747 16.6747,7.21067 30.6454,7.21067 12.168,0 22.0826,-5.408 4.9574,-7.21067 9.4641,-14.42134 4.9573,-9.01334 3.6053,-18.92802 h 1.352 l -1.352,-27.94135 q -1.352,-1.352 -1.352,-5.85867 0,-4.50667 -0.4507,-5.40801 z"
         style="fill:none"
         id="path270" />
      <path
         d="m 1427.4358,780.37216 q 7.2106,4.056 13.9706,7.66134 8.112,4.95734 9.9147,11.26667 0.9013,23.43469 -10.816,27.49069 -35.6027,0 -43.7147,-17.12534 -7.6613,-3.15467 -17.1253,-3.15467 -10.816,0 -17.1254,4.50667 -1.352,2.704 -3.1547,5.85867 -1.352,3.15467 -0.4506,7.21067 11.7173,9.46401 41.4613,19.82935 31.5467,11.26667 42.3627,18.92801 19.3787,13.97068 19.3787,36.95469 0,5.40801 -0.9013,11.26668 -2.704,4.50667 -7.6614,14.42134 -32.448,26.58935 -87.4293,26.58935 -32.4481,0 -59.0374,-10.36534 -13.52,-12.61867 -14.872,-13.97067 -6.76,-8.11201 -6.76,-17.57602 0,-4.056 0.9013,-8.112 2.704,-0.45067 2.2533,-4.50667 0,-4.50667 2.2534,-4.50667 13.0693,-8.11201 19.3786,-8.11201 3.1547,0 6.3094,0.90134 10.3653,3.60533 29.2933,22.98401 15.7734,17.12535 30.6454,17.12535 7.6613,0 16.224,-3.15467 12.168,-2.704 17.1254,-11.71734 2.2533,-13.06934 -14.4214,-22.08268 -21.632,-8.11201 -43.7147,-16.67468 -22.984,-10.36534 -34.2507,-25.68802 -2.704,-4.50667 -2.2533,-14.42135 0.4506,-17.12534 0.4506,-15.77334 0.4507,-1.352 2.7041,-3.60534 2.2533,-2.25333 2.2533,-4.50667 0,-1.352 -0.4507,-2.704 26.1387,-26.58935 82.4721,-26.58935 12.6187,0 24.7867,1.352 z"
         style="font-family:LevelFourteenDruid;-inkscape-font-specification:LevelFourteenDruid"
         id="path272" />
    </g>
  </g>
  <g
     inkscape:groupmode="layer"
     id="g14387"
     inkscape:label="Disegni sfocati"
     style="display:inline"
     transform="translate(149.931,100.01588)">
    <path
       d="m 1152,977 c -8.2945,-0.66901 -15.4474,-3.47594 -22.9203,-6.26875 -18.2704,-8.9762 -32.4995,-24.24487 -45.5775,-39.49004 -10.2588,-12.22209 -18.0084,-26.75293 -20.1307,-42.71724 -2.7301,-8.89957 -0.2398,-17.7799 -0.2218,-26.78162 1.5373,-15.06222 3.6577,-30.65051 10.4503,-44.34235 4.052,-7.62699 6.3291,-16.22198 10.6252,-23.84812 4.7224,-10.31612 11.2945,-19.61627 16.8748,-29.43938 9.2961,-6.56066 15.9242,-16.36174 24.2471,-24.15693 15.4112,-15.65818 31.4524,-31.40525 51.0857,-41.66534 8.7809,-1.7434 16.7959,-8.78909 17.9334,-17.98359 4.1215,-7.37185 5.0847,-15.66257 8.1674,-23.73926 3.2593,-10.64668 6.8059,-21.14742 9.7987,-31.86767 4.4326,-13.57992 8.8127,-27.23768 13.5913,-40.61944 5.5507,-9.56525 4.6543,-22.60651 14.3811,-29.61208 2.3898,-4.95222 12.3318,-5.56842 12.9828,-9.30257 -9.7165,-4.45692 5.1864,-4.06529 8.6875,-1.71562 4.6337,-0.0458 15.6613,-4.8769 7.175,-8.5 2.0839,-6.42528 12.2594,2.30277 16.95,-2.95 6.5277,0.93682 22.6535,5.59034 10.4822,12.33926 -6.8596,5.14508 0.089,8.5297 3.1991,12.0748 -5.2372,2.8062 -13.0961,-4.27791 -17.7364,3.27969 -5.4501,2.82778 -7.5268,7.53386 -0.1058,9.35938 0.072,6.51089 -12.0439,-0.99861 -15.9297,-0.38907 -7.8635,4.64146 -7.7241,15.12538 -9.8531,22.97656 -2.1162,12.25082 -4.2295,24.48932 -6.8872,36.62403 -2.4396,20.19577 -8.3941,39.84262 -9.248,60.2428 -0.6879,9.48791 -0.6222,19.52167 4.8508,27.76852 12.7611,23.62394 20.3835,49.60842 27.6487,75.33464 5.2899,18.03579 6.9948,36.85032 6.4778,55.58808 -0.1193,22.77998 -1.2136,46.65707 -12.7557,66.93886 -4.7354,9.75906 -10.7913,18.76899 -17.8052,27.0187 -5.8317,7.70108 -14.4725,12.8947 -22.0329,18.82571 -8.2084,5.50008 -17.3147,10.64397 -27.1046,12.31804 -7.8187,1.22145 -16.1212,4.06558 -24.4201,4.75859 -7.5932,0.61779 -15.3151,1.08811 -22.8799,-0.0586 z m 16.5,-17 c 8.7913,-2.37463 17.7069,-6.08143 27.0274,-5.89263 17.1644,-6.90898 28.5603,-23.48707 34.4618,-40.47079 9.9187,-25.37264 10.5182,-53.00846 11.0692,-79.88309 0.3629,-13.48912 -1.5402,-26.84921 -2.8412,-40.22693 0.094,-9.3429 -1.9625,-18.79149 -4.5172,-27.72656 -2.2788,-7.78097 -4.1375,-15.71034 -6.2,-23.4 -2.2888,-4.9978 -1.6735,-15.36376 -8.0438,-15.87188 -1.6576,8.12427 -6.3279,16.40348 -5.0812,24.6875 4.9028,8.95615 4.7377,19.51437 3.5375,29.35938 -3.6746,10.90591 -10.0097,20.88126 -18.4531,28.725 -5.7131,6.47053 -5.6455,15.72456 -8.7032,23.49089 -6.7143,20.30729 -11.4345,41.23203 -16.8218,61.87942 -0.184,8.86104 -6.2618,16.66086 -5.7219,25.51719 2.8803,2.58681 13.4859,6.98151 11.7016,9.28281 -8.573,-2.43408 -17.7143,-2.12698 -25.0016,-7.62031 -9.7782,-4.37372 -19.0412,-9.81164 -28.7875,-14.1 -5.2503,-5.14547 -17.3649,-9.11263 -17.476,-16.58574 6.2358,1.13185 17.343,12.47983 17.351,-1.16426 2.1792,-8.45096 5.3204,-16.44043 9.0375,-24.48447 3.4788,-8.25561 7.6622,-15.63624 9.3383,-24.51182 1.959,-11.03967 7.501,-21.02276 10.4445,-31.81777 5.3566,-8.59628 -4.48,-15.89179 -2.9667,-24.83177 0.3628,-17.96596 8.1909,-35.77636 20.7527,-48.53073 7.6119,-2.44277 11.6674,-12.03944 10.6937,-18.82344 -8.6631,2.39657 -15.0582,9.17015 -22.4631,13.925 -6.4941,5.43478 -12.9577,9.43649 -18.4369,15.975 -11.417,10.16664 -21.8186,21.92625 -28.6975,35.66172 -5.5001,7.24326 -7.7782,16.12824 -12.7619,23.68203 -5.221,9.95029 -7.7346,20.99517 -11.2906,31.58125 -2.7221,8.07921 -5.6727,16.39653 -6.2256,25.19968 -1.2234,8.89938 -3.0518,18.11603 0.4302,26.79642 6.367,19.73299 16.297,39.28617 33.1827,52.04216 13.8402,11.29728 31.5015,20.24528 49.8111,18.6758 z m 61.3,-6 c 7.7227,-5.06254 13.9603,-12.15842 19.3105,-19.05591 11.3073,-13.2906 18.5763,-29.80215 23.1209,-46.55292 4.1091,-19.10375 4.2467,-38.84927 3.6981,-58.30308 -1.9766,-10.02018 -1.7768,-20.47095 -5.2529,-30.13184 -2.0334,-15.24008 -7.4131,-29.7992 -11.9219,-44.43281 -6.0592,-16.72932 -12.5933,-33.57135 -22.6094,-48.36406 -9.0455,0.83586 2.5651,11.67452 3.1422,16.75312 4.5914,7.1848 5.0453,16.10404 7.7125,24.0875 4.6381,16.78844 6.6832,34.13365 9.9579,51.21153 2.5206,17.56314 3.8604,35.3676 2.8296,53.08847 3.3417,6.04961 -3.2564,14.26251 -2.078,21.74036 -0.9587,8.73648 0.7682,16.66516 -3.655,24.56921 0.5308,6.28378 -4.3171,14.97668 -5.0545,18.39043 -2.7914,6.13205 -6.0898,14.46951 -10.8381,20.28105 -3.9306,2.7536 -3.8834,7.40902 -4.3869,9.73145 -4.8869,3.50467 -14.1297,9.21436 -14.8875,13.34375 3.9434,-1.51499 7.4117,-4.03879 10.9125,-6.35625 z M 1166,905.8 c 4.4412,-15.1524 9.9366,-30.01965 12.7438,-45.60469 4.2676,-14.87838 7.7617,-29.97364 12.0062,-44.86093 -9.3924,-3.15824 -9.5084,11.65145 -13.35,17.46562 -6.3898,13.49697 -8.5503,28.41886 -12.4,42.7 -4.4368,11.39421 -6.3632,23.57441 -9.5,35.35 1.6016,10.95899 9.5177,5.08437 10.5,-5.05 z m -12.1,-3 c 5.1457,-17.44788 10.6254,-34.80962 14.7182,-52.55293 2.5146,-11.05237 7.412,-21.60924 8.6506,-32.90644 -3.7355,-5.79432 -10.5668,-4.15473 -10.1014,3.35273 -6.3923,21.55078 -12.1102,43.29665 -18.8049,64.75664 -0.1565,7.56308 -6.2787,15.40025 -5.2,22.08594 5.7258,5.82201 9.9384,2.56003 10.7375,-4.73594 z m -14.8,-3.9 c 4.7864,-14.79734 10.0092,-29.46386 15.325,-44.0625 0.6286,-9.10319 5.5306,-17.44773 7.4032,-26.42202 1.031,-7.10766 8.6298,-17.99912 -0.9657,-22.11079 -4.9674,5.21604 -5.8252,13.84837 -8.4189,20.72283 -7.2314,23.58787 -14.4894,47.2021 -23.4436,70.19748 -2.3997,5.45867 10.4912,9.49801 10.1,1.675 z m 44.2,-95.6 c 4.4555,-11.69646 6.7102,-24.11898 10.7294,-35.98574 1.9927,-7.96981 5.5203,-15.75302 6.0987,-23.96582 -9.6656,-8.10141 -10.8728,10.31603 -13.2892,16.20625 -5.4766,15.42211 -10.9805,30.92292 -14.8389,46.84531 2.8331,4.72804 10.7744,2.59428 11.3,-3.1 z m 7.5,5.1 c 7.5291,-4.72845 5.0623,-15.44212 8.4813,-22.74766 2.8906,-11.7309 7.4006,-23.21023 8.2312,-35.33984 -4.7116,-9.62423 -6.3091,7.65941 -8.1562,11.5043 -3.585,15.27521 -9.6923,29.90639 -12.3563,45.3832 -0.4913,2.66442 2.4816,1.5173 3.8,1.2 z m -20.7,-8.5 c 6.2491,-19.39559 12.6211,-38.76914 18.7955,-58.17734 -9.7001,-1.71653 -11.9862,10.95945 -14.4203,18.12768 -2.8414,11.02055 -8.0837,21.18525 -10.9611,32.16963 -4.407,6.03164 3.5406,21.85405 6.5859,7.88003 z m 37,-5.5 c 5.8738,-10.37349 10.3839,-23.5276 5.9744,-35.1873 -6.006,4.62895 -5.5107,16.05132 -8.2306,23.4916 -1.3279,6.43059 -5.6262,14.38245 -4.8641,19.85351 3.2729,-1.69068 5.0708,-5.26446 7.1203,-8.15781 z m -47.1,-6.6 c 3.1942,-8.17458 4.659,-16.62439 8.575,-24.6375 2.4372,-4.0535 6.6437,-19.73208 -1.575,-10.2625 -5.1376,6.3492 -10.8585,13.05249 -10.8115,21.75215 0.4305,3.87399 -1.941,16.07897 2.274,15.38535 l 0.7266,-1.02031 z m 53.2,-56.8 c 3.2155,-4.74173 -0.8142,-17.9802 -3.5953,-6.9625 -0.1183,5.48987 -7.352,17.67508 0.2857,18.86289 2.1619,-3.54746 2.3764,-7.92555 3.3096,-11.90039 z m -9.9,4.8 c 0.4325,-5.65236 8.2884,-21.07964 -0.95,-20.1375 -2.3123,6.94382 -11.4587,18.97539 -0.25,22.2375 0.927,-0.10225 0.7271,-1.77692 1.2,-2.1 z m -11.4,-4.5 c 0.4787,-5.45118 6.5391,-15.4182 2.1,-18.3 -5.7229,3.12316 -10.5545,14.75664 -7.9781,19.90313 1.9777,0.27992 4.5454,0.0865 5.8781,-1.60313 z m 28.1,-33.1 c 2.7538,-7.55669 3.0837,-15.93319 5.0234,-23.74531 7.8848,-33.00184 16.3492,-65.89427 24.8299,-98.7607 1.9374,-3.61084 0.2875,-10.50486 -1.3158,-2.71899 -3.65,15.09415 -7.0873,30.24913 -12.2982,44.90427 -8.1287,26.85295 -14.9955,54.07437 -21.2393,81.42073 1.146,1.06713 5.1027,1.26535 5,-1.1 z m -5.6,-11.4 c 1.8019,-7.99072 4.4952,-15.85584 4.5625,-24.075 6.128,-26.641 16.3487,-52.14425 22.2361,-78.8541 -0.092,-4.5374 7.9353,-15.23341 2.5545,-16.45371 -4.2483,10.43954 -6.4359,21.69459 -10.2815,32.33232 -4.7908,15.71511 -7.6303,32.04779 -13.4857,47.40518 -3.9481,8.38451 -5.1346,18.10069 -8.1725,26.9687 -0.9121,7.42818 -6.3173,16.86047 -2.6456,23.4938 4.2934,0.0813 3.8215,-8.06356 5.2322,-10.81719 z m -11.1,3.5 c 5.84,-23.68624 14.3611,-46.63381 20.6729,-70.20458 2.092,-8.44795 5.3485,-16.77558 5.9833,-25.47979 -4.7353,4.95289 -6.2907,14.76259 -9.2609,21.80557 -8.2817,25.00244 -16.6673,50.08457 -21.8703,75.9413 -0.4407,5.60082 5.5948,1.5542 4.475,-2.0625 z M 1235.6,580 c 0.6498,-2.96224 5.6493,-17.47395 0.4109,-10.51094 -0.2429,6.60259 -6.5638,19.28471 -5.0937,22.28125 1.98,-3.72409 3.6986,-7.65863 4.6828,-11.77031 z m 15.9,-22 c 7.943,-9.47448 -11.7099,7.33258 -1.25,1.18594 z m 20.3,-4.8 c 5.7291,-4.12698 19.2544,-7.61415 17.2,-16.2 -5.5874,-2.983 -14.9987,7.38993 -14.95,10.1875 3.1052,-1.78644 10.6962,-2.67772 3.6844,1.32187 -5.4334,1.46127 -16.8695,8.00868 -16.2344,10.09063 3.5403,-1.58374 6.9082,-3.52694 10.3,-5.4 z m -6.3,-3 c -3.6261,0.65128 -11.0469,9.83897 -3.5,3.7 1.0782,-1.18645 3.0155,-2.06941 3.5,-3.7 z"
       id="path14381"
       style="fill:#f4eed7;filter:url(#filter14417)" />
    <path
       d="m 402.8,545.3 c -5.8,-0.4 -5.8,-0.4 -5.8,-8.3 0,-8 -0.6,-9.3 -3,-6.5 -0.7,0.9 -2.6,2.5 -4.1,3.6 -2.8,2 -2.8,2 -4.8,-2.7 -2.4,-5.2 -2.5,-5.8 -1.2,-5 1.4,0.9 7.3,-2 9.9,-4.7 2.4,-2.5 2.4,-2.5 -10.5,-3.1 -21.00071,-0.49638 -34.65536,-8.65352 -50.8,-15.6 -2.86139,3.22116 -5.07142,3.94863 -8.4,5 -3.2,0 -9.3,-5 -13.2,-10.8 -2.4,-3.5 -4.6,-6.5 -5,-6.8 -0.4,-0.2 -1.8,1.4 -3.3,3.6 -4.6,7 -12.40755,1.39245 -14.8,-7.1 -1.29623,-5.99916 -2.69916,-15.01804 -3.2,-26.9 -0.62435,-10.09828 2.74041,-45.09859 10.1,-50.9 0.8,-0.4 1.7,-2.8 2,-5.3 0.5,-4.1 0.3,-4.7 -2.8,-7.2 -1.9,-1.6 -4.9,-4.6 -6.6,-6.8 -3.3,-4 -3.3,-4 0.3,-8.4 2,-2.4 3.9,-4.4 4.3,-4.4 0.4,0 1.3,2 2,4.5 1.7,5.9 7.6,13.6 9.7,12.8 1.3,-0.5 1.1,-1 -0.9,-3.2 -3.5,-3.7 -5.2,-7.6 -6.6,-14.8 -1,-5.1 -0.9,-6.8 0.2,-9.5 1.7,-3.8 6.2,-8.3 9.5,-9.3 1.4,-0.4 2.2,-1.4 2.2,-2.8 0.1,-3.5 1.8,-20.5 2.9,-28.8 2.2,-16.6 8.6,-37.9 11.4,-37.9 1.4,0 9.6,7.7 14.7,14 5.5,6.7 18.9,29.8 25.3,43.5 4.16752,8.86712 23.79165,70.02221 29.7,67 9.88701,-5.33115 16.64958,-10.98612 24.1,-17.1 5.5,-4.4 10.3,-9.6 23.7,-25.7 7.58486,-10.2351 18.72236,-24.90225 21.70084,-36.90042 3.66889,-11.684 6.63793,-15.06547 8.99916,-34.99958 1.12734,-10.43394 2.03791,-8.74044 3.9,-1.9 1.01185,3.77866 1.9,5 3.9,22.1 1.3,11.6 1.6,43.9 0.5,59.5 -0.92865,11.68973 -3.66061,22.33178 -6.2,33.7 2.65664,12.66836 5.05272,32.22758 1.6,48.3 -2.7,11.3 -4.5,16.3 -8.4,24 -12.00163,25.03169 -37.89111,30.85284 -51.5,33.2 -5.9,1 -9.3,2.1 -9.3,2.9 3.59026,5.24631 8.49035,7.98564 13.8,10.9 0.6,0.5 -2.8,6.5 -3.6,6.5 -0.5,0 -2.3,-1.1 -4.2,-2.5 -4,-2.9 -5.2,-2.5 -3.9,1.5 3.4,11 3.2,10.1 2.2,9.8 -0.5,-0.1 -3.4,-0.3 -6.5,-0.5 z m 14.9,-43.5 c 6.7605,-2.23827 13.18113,-5.43633 18.3,-9.7 4.4,-3.9 4.4,-3.9 1.6,-8.1 -8.3,-12.6 -12.1,-21.4 -14.6,-33.7 -1.2,-6 -1.4,-6.2 -3.9,-5.7 -11.69713,3.63934 -27.57941,6.65209 -37.4,2.4 -12.91601,-6.26762 -25.8748,-13.3264 -35.3,-22.9 -3.7,-3.8 -3.7,-3.8 -6.4,-0.8 -2.8,3.2 -7.30839,4.20168 -14.6,4.3 -7.18845,-0.18352 -11.58343,-4.48984 -19.4,-9.9 0,1.3 5.3,10.8 6.5,11.7 0.8,0.6 1.6,2.2 1.7,3.6 -1.22143,4.40252 -4.89057,5.46286 -9.4,6.9 -2.3,0.2 -7.8,-17.5 -7.8,-24.8 0,-1.7 -0.4,-3.1 -0.9,-3.1 -3.61547,7.21447 -3.2478,13.13433 -5,22 -2.61149,15.53392 -2.8336,34.02031 -0.2,44.9 1.8,7.5 3.4,11.9 4.9,13.4 2.2,2.1 2.2,2.1 4.8,-0.4 2.4,-2.4 2.6,-3.5 3.1,-13.5 0.6,-10.2 1.7,-13.9 3.5,-11.1 0.4,0.7 0.8,5.2 0.8,10 -0.31085,10.08426 4.35926,21.15674 13.3,25.3 3.9,1.8 4,1.8 5.7,-0.3 2.8,-3.5 1.4,-13.2 -3.5,-23.7 -9.5,-20.8 -12.3,-29.2 -11.1,-33.9 1,-4.1 2.2,-3.2 3.5,2.6 2.3,10.3 13.5,32.5 19.9,39.3 6.5,7.1 14.5,10.6 32.5,14.5 19.1,4.1 38,4.4 49.4,0.7 z M 445,484 c 4.70784,-4.00859 6.8109,-9.01174 8.81132,-14.6172 4.15659,-9.51383 6.60123,-25.07173 6.58868,-37.5828 0.1,-8.5 -0.7,-10.3 -3.2,-7.3 -2,2.4 -9.2,7 -18.2,11.6 -16,8.1 -14.8,6.7 -12.9,14.9 1,4.4 6.4,18.1 9.7,24.8 3.6,7.1 5.87836,11.02828 9.2,8.2 z m -31.1,-42.1 c 26.3,-7.6 44.1,-24.7 50.7,-48.4 4.92824,-15.63694 6.01371,-37.23625 6.2,-48.5 -0.3,-9.4 -0.3,-9.4 -4.1,-2.4 -6.62183,13.48679 -12.9004,25.4398 -18.8,37.4 -4.8053,10.86127 -12.27975,21.46216 -18.2,30.5 -10.91449,15.11576 -19.87929,22.69244 -32.6,34.2 -1.7,1.3 8,-0.2 16.8,-2.8 z m -27.3,-6.4 c -0.91496,-11.52783 -4.13173,-22.92224 -6.6,-33.9 -1.39142,-8.45388 -24.77795,-64.68312 -27.74667,-68.73641 C 348.5032,327.30325 338.55811,305.43018 332.4,304 c -10.50197,11.19178 -10.31807,31.85872 -10.9,43.7 -0.6,13.2 -0.6,13.2 3,19.8 1.59664,3.79623 3.17653,8.95039 3,10.5 -0.6,4.19246 -0.69526,4.58815 1.80474,5.48815 2.78438,1.61037 5.34513,4.58618 9.99526,11.81185 2.7,4.6 5.2,15.2 4.5,19.1 -0.4,2 0.7,3.6 6.1,8.8 6.80631,6.2545 27.34976,20.01238 35.5,20.8 1.8,0 1.8,-0.6 1.2,-8.5 z M 429.8,403 c 12.70491,-19.76914 26.63347,-42.65815 33.6,-63.9 6.71749,-18.4969 2.67478,-12.87958 -2.3,0 -4.1,10.8 -11.8,22.2 -26.2,39 -12.6,14.8 -32.2,31.9 -42.2,37.1 -6.10489,3.22546 -2.63909,9.29773 -2.2,15.4 0.8,9.8 1.3,12.4 2.5,12.4 12.69955,-9.34777 29.40971,-27.77871 36.8,-40 z m -95.2,17.3 c 3.6,-3.3 3.7,-3.6 3.6,-10.6 0,-5.6 -0.5,-8.1 -2.3,-11.2 -3.4,-6 -7.6,-10.1 -11.9,-11.5 -3.4,-1.1 -4.3,-1 -7.7,0.7 -4.4,2.3 -7,7 -8.3,15 -0.8,4.7 -0.6,6.1 1.2,9.9 2.4,5.3 6.9,9 12.9,10.7 5.8,1.7 8.1,1.2 12.5,-3 z m -13.4,-38.4 c 1.7,-0.9 1.9,-1.7 1.3,-5.7 -0.4,-2.6 -1.3,-5.9 -2.1,-7.4 -1.5,-2.8 -3.4,-3.8 -3.4,-1.6 0,1.8 -3.1,4.8 -5,4.8 -4.9,0 -5.7,-7.9 -1,-9 2.5,-0.6 2.5,-0.6 0.2,-1.4 -3.3,-1.1 -7.29623,0.29832 -9.7,3.7 -2.80084,5.18868 -2.4,11.1 -0.4,16.6 1,3.1 2.9,6.4 4.2,7.3 2.1,1.7 2.3,1.6 6.2,-2.2 2.57229,-3.54103 6.43687,-3.50339 9.7,-5.1 z"
       id="path14383"
       style="fill:#f4eed7;filter:url(#filter14413)"
       sodipodi:nodetypes="csccccccccccccccccccscccccccssccccccccccccccccsccccccccccccccsccsccccccccccccccccsccscccscccccccccccccccccccccccccccccccccccccccccssccccccc" />
    <path
       d="m 319.6,396.1 c -1,-1.1 -1.6,-3 -1.4,-4.3 0.6,-4.7 9.8,-2.7 9.8,2.2 0,4 -5.4,5.4 -8.4,2.1 z"
       id="path14385"
       style="fill:#f4eed7;filter:url(#filter14409)" />
  </g>
  <g
     inkscape:groupmode="layer"
     id="layer1"
     inkscape:label="Testo"
     style="display:inline"
     transform="translate(149.931,100.01588)">
    <g
       aria-label="The"
       id="text1391"
       style="font-size:250.667px;line-height:1.25;fill:#ffffff">
      <path
         d="M 685.11901,102.2758 V 249.668 H 635.98827 V 102.2758 H 595.63089 V 60.665076 H 725.4764 V 102.2758 Z"
         style="font-weight:bold;font-family:Futura;-inkscape-font-specification:'Futura Bold'"
         id="path239" />
      <path
         d="m 742.82334,41.614383 h 45.37073 v 95.754797 q 9.27467,-11.28002 18.80002,-15.04002 9.52535,-4.01067 22.30936,-4.01067 24.3147,0 36.59739,13.53602 12.53335,13.28535 12.53335,36.09604 V 249.668 h -45.37073 v -64.92276 q 0,-9.77601 -1.504,-15.79202 -1.504,-6.01601 -5.01334,-9.27468 -6.01601,-5.264 -14.53869,-5.264 -11.53068,0 -17.79736,7.01867 -6.016,6.76801 -6.016,19.55203 V 249.668 h -45.37073 z"
         style="font-weight:bold;font-family:Futura;-inkscape-font-specification:'Futura Bold'"
         id="path241" />
      <path
         d="m 1003.282,166.69722 q -2.256,-9.52535 -9.27466,-15.29069 -7.01867,-5.76534 -17.04535,-5.76534 -10.52802,0 -17.29603,5.51468 -6.51734,5.51467 -8.27201,15.54135 z m -53.14138,26.32004 q 0,29.32804 27.57337,29.32804 14.78935,0 22.30941,-12.03202 h 43.8667 q -13.2854,44.11739 -66.42678,44.11739 -16.29336,0 -29.82937,-4.76267 -13.53602,-5.01334 -23.31204,-14.03735 -9.52534,-9.02402 -14.78935,-21.55737 -5.26401,-12.53335 -5.26401,-28.0747 0,-16.04269 5.01334,-28.82671 5.01334,-13.03468 14.28802,-22.05869 9.27468,-9.02402 22.30937,-13.78669 13.28535,-5.01334 29.82937,-5.01334 16.29336,0 29.32805,5.01334 13.0347,4.76267 22.0587,14.03735 9.024,9.27468 13.7867,22.8107 4.7626,13.28535 4.7626,30.08004 v 4.76268 z"
         style="font-weight:bold;font-family:Futura;-inkscape-font-specification:'Futura Bold'"
         id="path243" />
    </g>
    <g
       aria-label="Hungry"
       id="text5407"
       style="font-size:400px;line-height:1.25;fill:#ffffff">
      <path
         d="m 142.24118,280.98382 v 66.4 h 106.4 v -80 h 26.8 v 240 h -26.8 v -133.6 h -80.4 v 120.4 l -13.2,13.2 h -52.8 l -13.600004,-13.6 v -212.8 l 13.600004,-13.6 h 26.4 z"
         style="font-family:Computerfont;-inkscape-font-specification:Computerfont"
         id="path226" />
      <path
         d="m 455.54743,507.38382 h -132.8 l -13.6,-13.6 v -159.6 l 13.6,-13.6 h 26 l 13.6,13.6 v 53.2 l 26.8,26.8 v 66.4 h 53.2 v -160 h 26.8 v 173.2 z"
         style="fill:none"
         id="path228" />
      <path
         d="m 627.84743,347.38382 h -80 v 40.4 l 26.4,26.4 v 79.6 l -13.6,13.6 h -52.4 l -13.6,-13.6 v -159.6 l 13.6,-13.6 h 132.4 l 13.6,13.6 0.4,173.2 h -26.8 z"
         style="font-family:Computerfont;-inkscape-font-specification:Computerfont"
         id="path230" />
      <path
         d="m 817.00368,480.58382 v -133.2 h -80 v 40 l 26.4,26.4 v 66.8 z m 0,80 v -53.2 h -119.6 l -13.6,-13.6 v -159.6 l 13.6,-13.6 h 132.8 l 13.2,13.2 v 240 l -13.6,13.6 h -146.4 v -26.8 z"
         style="font-family:Computerfont;-inkscape-font-specification:Computerfont"
         id="path232" />
      <path
         d="m 882.46618,507.38382 -13.6,-13.6 v -159.6 l 13.6,-13.6 h 119.60002 v 26.8 h -80.00002 v 40 l 26.4,26.4 v 80 l -13.6,13.6 z"
         style="font-family:Computerfont;-inkscape-font-specification:Computerfont"
         id="path234" />
      <path
         d="m 1181.2099,573.78382 -13.6,13.6 h -146.8 v -26.8 h 133.6 v -53.2 h -120 l -13.6,-13.6 v -159.6 l 13.6,-13.6 h 53.2 l 13.6,13.6 v 80.4 l -26.8,26.8 v 39.2 h 80 v -160 h 26.8 z"
         style="font-family:Computerfont;-inkscape-font-specification:Computerfont"
         id="path236" />
    </g>
    <g
       aria-label="Bards"
       id="text8036"
       style="font-size:450.667px;line-height:1.25;fill:#ffffff">
      <path
         d="m 303.92998,643.82006 q 10.36534,-9.01334 22.98402,-9.01334 7.66134,0 11.26667,4.95734 -1.352,7.21067 2.704,11.26667 0.45067,0.90134 9.01334,7.66134 5.85867,0.90134 11.71735,0.90134 14.42134,0 41.01069,-9.01334 26.58935,-9.01334 41.0107,-9.46401 7.21067,-0.45067 23.88535,-2.704 15.32268,-1.80267 23.88535,-1.80267 12.16801,0 22.08268,3.15467 42.3627,-0.90133 80.66939,26.58935 24.33602,29.74402 24.33602,58.13604 0,4.50667 -0.45067,9.01334 -15.77334,28.84269 -43.71469,35.6027 -0.45067,2.704 -1.35201,7.66133 19.82935,12.61868 39.6587,25.23736 20.28001,16.22401 19.37868,39.65869 l 1.80267,24.78669 q -2.704,1.80266 -3.60534,8.112 -0.45066,5.85867 -2.25333,8.11201 -10.36534,23.43468 -35.15203,37.85603 -24.33602,14.42134 -55.43204,14.87201 -35.60269,6.30933 -63.09338,2.704 v -1.352 Q 412.99139,924.5856 362.06602,924.5856 q -18.47734,0 -35.60269,1.352 -13.52001,4.056 -30.64536,-2.704 -2.25333,-4.05601 -2.25333,-7.21067 0,-5.40801 7.66134,-9.46401 7.66134,-4.50667 14.42134,-8.11201 11.71734,-0.90133 16.22401,-13.52001 5.85867,-16.22401 9.01334,-18.92801 1.80267,-24.78669 1.80267,-50.02404 0,-25.68802 -1.80267,-49.1227 -1.80266,-5.408 -12.16801,-15.77334 -9.464,-9.01334 -9.464,-16.22402 0,-3.60533 1.80267,-7.66133 65.79738,-9.46401 132.94676,-45.0667 8.56267,3.15467 8.56267,18.02668 0,1.80266 -0.45067,5.408 0,3.60534 0,5.408 0,9.91468 3.15467,14.42135 -2.25333,2.704 -2.704,7.21067 -0.45067,3.15467 -0.45067,9.46401 0.45067,6.30933 0.45067,8.56267 8.11201,9.46401 27.04002,9.46401 10.36534,0 22.53335,-2.70401 25.68802,-5.408 35.60269,-25.68801 3.15467,-2.25334 3.15467,-9.46401 0,-11.26668 0,-12.16801 1.352,0 2.25334,-1.80267 -12.16801,-36.05336 -41.0107,-44.16536 -18.92801,-8.56268 -37.40536,-8.56268 -23.88535,0 -66.24805,21.63202 -42.36269,21.18135 -66.69871,21.18135 -15.77335,0 -31.09602,-5.85867 -15.77335,-10.36534 -18.47735,-18.02668 -0.90134,-3.60534 -0.90134,-7.21067 0,-6.76001 4.50667,-13.52001 4.05601,-4.95734 8.11201,-9.91468 z m 126.18676,92.8374 q -0.45067,-14.87201 -9.01334,-13.52001 -13.97068,6.30934 -13.97068,30.19469 0,4.50667 0.45067,14.42134 0.90133,9.91468 0.90133,14.42135 0,9.46401 -1.80267,15.77334 h -0.90133 v 5.40801 q -0.90133,1.80267 -0.90133,3.60533 0,2.25334 1.352,5.40801 1.80267,3.15467 1.80267,4.50667 0,2.25333 -2.25334,4.056 l 0.90133,69.40272 1.35201,1.80266 q -0.45067,1.35201 -0.45067,2.70401 0,5.85867 11.71734,4.95733 6.30934,-1.80266 10.81601,-11.71734 0.45067,-1.352 0.45067,-11.71734 0,-7.21067 2.704,-9.91467 -5.40801,-9.91468 -1.352,-31.09603 h 1.352 q -3.15467,-18.02668 -3.15467,-48.67203 0,-48.67204 0,-50.02404 z m 124.83475,73.45872 q -16.67467,-28.39202 -64.89604,-27.49068 -2.704,0.90133 -13.97068,0.90133 -9.46401,-0.45067 -12.61867,4.056 0.90133,22.08269 -0.90134,49.1227 h -1.80267 q 5.85867,4.95734 1.80267,19.82935 h -1.80267 q -0.90133,5.40801 -0.90133,10.36534 0,17.57602 19.37868,36.50403 10.36534,6.30934 25.23735,6.30934 11.26668,0 21.18135,-3.60534 16.67468,-3.15467 24.78668,-17.12534 3.60534,-5.85868 10.81601,-28.84269 h 1.352 q 2.70401,-27.94136 -7.66134,-50.02404 z"
         style="font-family:LevelFourteenDruid;-inkscape-font-specification:LevelFourteenDruid"
         id="path215" />
      <path
         d="m 788.58007,758.74015 q 10.36534,4.50666 21.18135,9.91467 11.26667,4.95734 15.77334,13.06934 6.76001,16.67468 6.76001,31.99736 0,7.21067 -1.80267,12.61867 l 1.80267,1.352 2.704,61.74138 q 0.45067,2.704 4.50667,2.704 3.15467,0 6.76,0 2.70401,-4.95733 10.81601,-4.056 2.704,3.15467 2.704,9.91468 0,5.408 0,11.26667 -37.40536,26.13869 -55.43204,26.13869 -3.60533,0 -7.21067,-0.90134 -5.85867,-1.352 -8.112,-13.06934 -2.25334,-12.16801 -8.56268,-12.16801 -2.704,0 -6.76,1.80267 -23.43469,22.53335 -66.69872,22.53335 -11.26667,0 -22.53335,-1.80267 -15.32267,-6.76 -16.67468,-7.66134 -8.112,-5.408 -8.56267,-14.87201 l -1.352,-28.84269 q 2.704,-1.352 3.15467,-5.85867 0.45067,-4.50667 2.25334,-6.30934 12.61867,-20.28001 52.27737,-35.15202 49.1227,-18.47735 59.93871,-26.58935 1.352,-6.30934 1.352,-11.26668 0,-13.97068 -12.16801,-16.22401 -36.50403,-3.15467 -41.91203,14.42134 -4.056,24.33602 -33.34936,31.54669 -16.67468,-7.21067 -18.47735,-21.63201 v -4.50667 q 4.95734,-10.81601 8.11201,-18.92802 22.98402,-25.23735 73.00805,-25.23735 18.92802,0 36.50403,4.05601 z m -5.40801,103.20274 q -2.25333,-2.25334 -2.704,-9.91468 0,-4.95733 0,-10.36534 -0.45066,-4.95734 -3.60533,-6.30934 -18.02668,8.11201 -36.50403,16.67468 -20.73068,10.36534 -29.74402,20.28002 0,1.352 0,13.06934 0,7.66134 3.15467,10.36534 3.15467,10.36534 22.08268,5.85867 14.87201,-7.21067 30.19469,-14.87201 16.67468,-10.36534 17.12534,-24.78668 z"
         style="font-family:LevelFourteenDruid;-inkscape-font-specification:LevelFourteenDruid"
         id="path217" />
      <path
         d="m 936.50448,781.72416 q 12.61868,3.60534 12.61868,18.47735 1.352,1.352 1.80266,8.56267 0.45067,7.21067 4.95734,7.66134 14.87201,-10.36534 29.29336,-20.73068 18.02668,-11.26668 34.70138,-11.26668 6.3093,0 12.6187,1.352 11.2666,5.40801 13.0693,14.42135 v 20.28001 q -2.2533,0.90134 -2.704,5.85867 -0.4507,4.50667 -2.2533,5.85867 -4.056,6.30934 -13.0694,6.30934 2.2533,0 -22.5333,-4.056 -0.9014,-0.45067 -9.01338,-4.95734 -5.85867,-3.15467 -9.91467,-3.15467 -4.056,0 -7.66134,3.15467 -29.74402,11.71734 -27.49069,45.96804 -2.704,4.50667 -2.704,11.71734 0,9.01334 4.95734,22.53335 4.50667,4.056 18.47735,6.76 13.97067,2.704 18.92801,5.40801 8.56267,4.95733 7.66134,16.22401 -7.21067,9.01334 -23.43468,9.01334 -5.40801,0 -16.67468,-1.352 -11.26668,-0.90134 -16.67468,-0.90134 -5.85867,0 -10.36534,0.90134 -23.43469,1.352 -27.49069,0.90133 -17.57601,-0.90133 -25.23735,-8.56267 -2.25334,-10.36534 11.26667,-17.57601 13.97068,-7.66134 12.16801,-17.57602 h 1.352 q 4.05601,-28.39202 -1.352,-40.56003 h 1.352 q 0,-2.25333 0.90134,-9.01334 0.90133,-7.21067 0.90133,-10.816 0,-9.91468 -5.408,-13.06935 -1.80267,-0.45066 -3.60534,-0.45066 -2.704,0 -7.21067,1.80266 -4.056,1.352 -6.30934,1.352 -3.15467,0 -5.85867,-1.80266 -1.352,-4.05601 -1.352,-9.01334 0,-15.32268 10.81601,-18.47735 9.464,-2.704 25.23735,-10.36534 15.77334,-8.11201 25.23735,-10.81601 z"
         style="font-family:LevelFourteenDruid;-inkscape-font-specification:LevelFourteenDruid"
         id="path219" />
      <path
         d="m 1227.2762,649.67873 q 7.6614,0.90134 15.7734,2.25334 8.5627,1.352 11.7173,5.85867 v 33.80002 h -0.9013 q -3.6053,71.20539 0.9013,104.10408 h -0.9013 l -1.8027,22.98401 h -1.352 l -1.8026,72.55739 q 3.6053,2.25334 16.6746,0 9.464,-1.352 9.9147,6.30934 h -1.352 q -0.9013,2.25333 -0.9013,9.46401 0,6.76 -2.704,8.56267 -9.9147,5.85867 -27.4907,11.71734 -29.2934,9.91467 -29.2934,9.91467 -9.0133,0.90134 -12.6186,-10.36534 0,-12.61867 -5.8587,-13.52001 -30.6454,21.63202 -56.7841,21.63202 -9.9146,0 -19.3786,-3.15467 -13.52,-4.50667 -18.4774,-6.30934 -9.9147,-4.50667 -14.872,-10.81601 -24.336,-21.63201 -25.2373,-69.85338 h 1.8026 l 1.352,-22.53335 q 2.2534,-1.80267 2.704,-7.66134 0.4507,-5.85867 2.2534,-8.112 8.112,-20.73069 30.1946,-35.6027 22.5334,-14.87201 45.0667,-14.87201 12.1681,0 26.5894,8.11201 20.28,11.26667 24.7867,13.06934 8.5627,0.45067 8.5627,-9.01334 0,-1.80267 -0.9014,-9.01334 -0.4506,-5.85867 0,-8.56267 -2.704,-7.21067 -2.704,-18.47735 0,-11.26667 2.704,-18.47734 0.4507,1.352 0.4507,-11.71735 0.4507,-7.21067 -5.408,-7.66133 -9.9147,-2.25334 -19.8294,6.76 -3.1546,-2.704 -6.76,-5.408 -3.1546,-2.70401 -3.1546,-6.76001 0,-1.352 0.4506,-3.60533 5.408,-11.71735 26.1387,-20.73069 28.8427,-12.16801 32.448,-14.87201 z m -31.096,169.00012 q -2.2533,-7.66133 -20.7307,-23.88535 -12.6186,-11.26667 -29.744,-11.26667 -7.2107,0 -13.52,2.704 -21.632,9.01334 -25.2373,36.95469 h -1.352 l 1.352,15.77335 q 2.2533,23.88535 25.2373,50.4747 16.6747,7.21067 30.6454,7.21067 12.168,0 22.0826,-5.408 4.9574,-7.21067 9.4641,-14.42134 4.9573,-9.01334 3.6053,-18.92802 h 1.352 l -1.352,-27.94135 q -1.352,-1.352 -1.352,-5.85867 0,-4.50667 -0.4507,-5.40801 z"
         style="fill:none"
         id="path221" />
      <path
         d="m 1427.4358,780.37216 q 7.2106,4.056 13.9706,7.66134 8.112,4.95734 9.9147,11.26667 0.9013,23.43469 -10.816,27.49069 -35.6027,0 -43.7147,-17.12534 -7.6613,-3.15467 -17.1253,-3.15467 -10.816,0 -17.1254,4.50667 -1.352,2.704 -3.1547,5.85867 -1.352,3.15467 -0.4506,7.21067 11.7173,9.46401 41.4613,19.82935 31.5467,11.26667 42.3627,18.92801 19.3787,13.97068 19.3787,36.95469 0,5.40801 -0.9013,11.26668 -2.704,4.50667 -7.6614,14.42134 -32.448,26.58935 -87.4293,26.58935 -32.4481,0 -59.0374,-10.36534 -13.52,-12.61867 -14.872,-13.97067 -6.76,-8.11201 -6.76,-17.57602 0,-4.056 0.9013,-8.112 2.704,-0.45067 2.2533,-4.50667 0,-4.50667 2.2534,-4.50667 13.0693,-8.11201 19.3786,-8.11201 3.1547,0 6.3094,0.90134 10.3653,3.60533 29.2933,22.98401 15.7734,17.12535 30.6454,17.12535 7.6613,0 16.224,-3.15467 12.168,-2.704 17.1254,-11.71734 2.2533,-13.06934 -14.4214,-22.08268 -21.632,-8.11201 -43.7147,-16.67468 -22.984,-10.36534 -34.2507,-25.68802 -2.704,-4.50667 -2.2533,-14.42135 0.4506,-17.12534 0.4506,-15.77334 0.4507,-1.352 2.7041,-3.60534 2.2533,-2.25333 2.2533,-4.50667 0,-1.352 -0.4507,-2.704 26.1387,-26.58935 82.4721,-26.58935 12.6187,0 24.7867,1.352 z"
         style="font-family:LevelFourteenDruid;-inkscape-font-specification:LevelFourteenDruid"
         id="path223" />
    </g>
  </g>
  <g
     inkscape:groupmode="layer"
     id="layer4"
     inkscape:label="Disegni"
     style="display:inline"
     transform="translate(149.931,100.01588)">
    <path
       d="m 1152,977 c -8.2945,-0.66901 -15.4474,-3.47594 -22.9203,-6.26875 -18.2704,-8.9762 -32.4995,-24.24487 -45.5775,-39.49004 -10.2588,-12.22209 -18.0084,-26.75293 -20.1307,-42.71724 -2.7301,-8.89957 -0.2398,-17.7799 -0.2218,-26.78162 1.5373,-15.06222 3.6577,-30.65051 10.4503,-44.34235 4.052,-7.62699 6.3291,-16.22198 10.6252,-23.84812 4.7224,-10.31612 11.2945,-19.61627 16.8748,-29.43938 9.2961,-6.56066 15.9242,-16.36174 24.2471,-24.15693 15.4112,-15.65818 31.4524,-31.40525 51.0857,-41.66534 8.7809,-1.7434 16.7959,-8.78909 17.9334,-17.98359 4.1215,-7.37185 5.0847,-15.66257 8.1674,-23.73926 3.2593,-10.64668 6.8059,-21.14742 9.7987,-31.86767 4.4326,-13.57992 8.8127,-27.23768 13.5913,-40.61944 5.5507,-9.56525 4.6543,-22.60651 14.3811,-29.61208 2.3898,-4.95222 12.3318,-5.56842 12.9828,-9.30257 -9.7165,-4.45692 5.1864,-4.06529 8.6875,-1.71562 4.6337,-0.0458 15.6613,-4.8769 7.175,-8.5 2.0839,-6.42528 12.2594,2.30277 16.95,-2.95 6.5277,0.93682 22.6535,5.59034 10.4822,12.33926 -6.8596,5.14508 0.089,8.5297 3.1991,12.0748 -5.2372,2.8062 -13.0961,-4.27791 -17.7364,3.27969 -5.4501,2.82778 -7.5268,7.53386 -0.1058,9.35938 0.072,6.51089 -12.0439,-0.99861 -15.9297,-0.38907 -7.8635,4.64146 -7.7241,15.12538 -9.8531,22.97656 -2.1162,12.25082 -4.2295,24.48932 -6.8872,36.62403 -2.4396,20.19577 -8.3941,39.84262 -9.248,60.2428 -0.6879,9.48791 -0.6222,19.52167 4.8508,27.76852 12.7611,23.62394 20.3835,49.60842 27.6487,75.33464 5.2899,18.03579 6.9948,36.85032 6.4778,55.58808 -0.1193,22.77998 -1.2136,46.65707 -12.7557,66.93886 -4.7354,9.75906 -10.7913,18.76899 -17.8052,27.0187 -5.8317,7.70108 -14.4725,12.8947 -22.0329,18.82571 -8.2084,5.50008 -17.3147,10.64397 -27.1046,12.31804 -7.8187,1.22145 -16.1212,4.06558 -24.4201,4.75859 -7.5932,0.61779 -15.3151,1.08811 -22.8799,-0.0586 z m 16.5,-17 c 8.7913,-2.37463 17.7069,-6.08143 27.0274,-5.89263 17.1644,-6.90898 28.5603,-23.48707 34.4618,-40.47079 9.9187,-25.37264 10.5182,-53.00846 11.0692,-79.88309 0.3629,-13.48912 -1.5402,-26.84921 -2.8412,-40.22693 0.094,-9.3429 -1.9625,-18.79149 -4.5172,-27.72656 -2.2788,-7.78097 -4.1375,-15.71034 -6.2,-23.4 -2.2888,-4.9978 -1.6735,-15.36376 -8.0438,-15.87188 -1.6576,8.12427 -6.3279,16.40348 -5.0812,24.6875 4.9028,8.95615 4.7377,19.51437 3.5375,29.35938 -3.6746,10.90591 -10.0097,20.88126 -18.4531,28.725 -5.7131,6.47053 -5.6455,15.72456 -8.7032,23.49089 -6.7143,20.30729 -11.4345,41.23203 -16.8218,61.87942 -0.184,8.86104 -6.2618,16.66086 -5.7219,25.51719 2.8803,2.58681 13.4859,6.98151 11.7016,9.28281 -8.573,-2.43408 -17.7143,-2.12698 -25.0016,-7.62031 -9.7782,-4.37372 -19.0412,-9.81164 -28.7875,-14.1 -5.2503,-5.14547 -17.3649,-9.11263 -17.476,-16.58574 6.2358,1.13185 17.343,12.47983 17.351,-1.16426 2.1792,-8.45096 5.3204,-16.44043 9.0375,-24.48447 3.4788,-8.25561 7.6622,-15.63624 9.3383,-24.51182 1.959,-11.03967 7.501,-21.02276 10.4445,-31.81777 5.3566,-8.59628 -4.48,-15.89179 -2.9667,-24.83177 0.3628,-17.96596 8.1909,-35.77636 20.7527,-48.53073 7.6119,-2.44277 11.6674,-12.03944 10.6937,-18.82344 -8.6631,2.39657 -15.0582,9.17015 -22.4631,13.925 -6.4941,5.43478 -12.9577,9.43649 -18.4369,15.975 -11.417,10.16664 -21.8186,21.92625 -28.6975,35.66172 -5.5001,7.24326 -7.7782,16.12824 -12.7619,23.68203 -5.221,9.95029 -7.7346,20.99517 -11.2906,31.58125 -2.7221,8.07921 -5.6727,16.39653 -6.2256,25.19968 -1.2234,8.89938 -3.0518,18.11603 0.4302,26.79642 6.367,19.73299 16.297,39.28617 33.1827,52.04216 13.8402,11.29728 31.5015,20.24528 49.8111,18.6758 z m 61.3,-6 c 7.7227,-5.06254 13.9603,-12.15842 19.3105,-19.05591 11.3073,-13.2906 18.5763,-29.80215 23.1209,-46.55292 4.1091,-19.10375 4.2467,-38.84927 3.6981,-58.30308 -1.9766,-10.02018 -1.7768,-20.47095 -5.2529,-30.13184 -2.0334,-15.24008 -7.4131,-29.7992 -11.9219,-44.43281 -6.0592,-16.72932 -12.5933,-33.57135 -22.6094,-48.36406 -9.0455,0.83586 2.5651,11.67452 3.1422,16.75312 4.5914,7.1848 5.0453,16.10404 7.7125,24.0875 4.6381,16.78844 6.6832,34.13365 9.9579,51.21153 2.5206,17.56314 3.8604,35.3676 2.8296,53.08847 3.3417,6.04961 -3.2564,14.26251 -2.078,21.74036 -0.9587,8.73648 0.7682,16.66516 -3.655,24.56921 0.5308,6.28378 -4.3171,14.97668 -5.0545,18.39043 -2.7914,6.13205 -6.0898,14.46951 -10.8381,20.28105 -3.9306,2.7536 -3.8834,7.40902 -4.3869,9.73145 -4.8869,3.50467 -14.1297,9.21436 -14.8875,13.34375 3.9434,-1.51499 7.4117,-4.03879 10.9125,-6.35625 z M 1166,905.8 c 4.4412,-15.1524 9.9366,-30.01965 12.7438,-45.60469 4.2676,-14.87838 7.7617,-29.97364 12.0062,-44.86093 -9.3924,-3.15824 -9.5084,11.65145 -13.35,17.46562 -6.3898,13.49697 -8.5503,28.41886 -12.4,42.7 -4.4368,11.39421 -6.3632,23.57441 -9.5,35.35 1.6016,10.95899 9.5177,5.08437 10.5,-5.05 z m -12.1,-3 c 5.1457,-17.44788 10.6254,-34.80962 14.7182,-52.55293 2.5146,-11.05237 7.412,-21.60924 8.6506,-32.90644 -3.7355,-5.79432 -10.5668,-4.15473 -10.1014,3.35273 -6.3923,21.55078 -12.1102,43.29665 -18.8049,64.75664 -0.1565,7.56308 -6.2787,15.40025 -5.2,22.08594 5.7258,5.82201 9.9384,2.56003 10.7375,-4.73594 z m -14.8,-3.9 c 4.7864,-14.79734 10.0092,-29.46386 15.325,-44.0625 0.6286,-9.10319 5.5306,-17.44773 7.4032,-26.42202 1.031,-7.10766 8.6298,-17.99912 -0.9657,-22.11079 -4.9674,5.21604 -5.8252,13.84837 -8.4189,20.72283 -7.2314,23.58787 -14.4894,47.2021 -23.4436,70.19748 -2.3997,5.45867 10.4912,9.49801 10.1,1.675 z m 44.2,-95.6 c 4.4555,-11.69646 6.7102,-24.11898 10.7294,-35.98574 1.9927,-7.96981 5.5203,-15.75302 6.0987,-23.96582 -9.6656,-8.10141 -10.8728,10.31603 -13.2892,16.20625 -5.4766,15.42211 -10.9805,30.92292 -14.8389,46.84531 2.8331,4.72804 10.7744,2.59428 11.3,-3.1 z m 7.5,5.1 c 7.5291,-4.72845 5.0623,-15.44212 8.4813,-22.74766 2.8906,-11.7309 7.4006,-23.21023 8.2312,-35.33984 -4.7116,-9.62423 -6.3091,7.65941 -8.1562,11.5043 -3.585,15.27521 -9.6923,29.90639 -12.3563,45.3832 -0.4913,2.66442 2.4816,1.5173 3.8,1.2 z m -20.7,-8.5 c 6.2491,-19.39559 12.6211,-38.76914 18.7955,-58.17734 -9.7001,-1.71653 -11.9862,10.95945 -14.4203,18.12768 -2.8414,11.02055 -8.0837,21.18525 -10.9611,32.16963 -4.407,6.03164 3.5406,21.85405 6.5859,7.88003 z m 37,-5.5 c 5.8738,-10.37349 10.3839,-23.5276 5.9744,-35.1873 -6.006,4.62895 -5.5107,16.05132 -8.2306,23.4916 -1.3279,6.43059 -5.6262,14.38245 -4.8641,19.85351 3.2729,-1.69068 5.0708,-5.26446 7.1203,-8.15781 z m -47.1,-6.6 c 3.1942,-8.17458 4.659,-16.62439 8.575,-24.6375 2.4372,-4.0535 6.6437,-19.73208 -1.575,-10.2625 -5.1376,6.3492 -10.8585,13.05249 -10.8115,21.75215 0.4305,3.87399 -1.941,16.07897 2.274,15.38535 l 0.7266,-1.02031 z m 53.2,-56.8 c 3.2155,-4.74173 -0.8142,-17.9802 -3.5953,-6.9625 -0.1183,5.48987 -7.352,17.67508 0.2857,18.86289 2.1619,-3.54746 2.3764,-7.92555 3.3096,-11.90039 z m -9.9,4.8 c 0.4325,-5.65236 8.2884,-21.07964 -0.95,-20.1375 -2.3123,6.94382 -11.4587,18.97539 -0.25,22.2375 0.927,-0.10225 0.7271,-1.77692 1.2,-2.1 z m -11.4,-4.5 c 0.4787,-5.45118 6.5391,-15.4182 2.1,-18.3 -5.7229,3.12316 -10.5545,14.75664 -7.9781,19.90313 1.9777,0.27992 4.5454,0.0865 5.8781,-1.60313 z m 28.1,-33.1 c 2.7538,-7.55669 3.0837,-15.93319 5.0234,-23.74531 7.8848,-33.00184 16.3492,-65.89427 24.8299,-98.7607 1.9374,-3.61084 0.2875,-10.50486 -1.3158,-2.71899 -3.65,15.09415 -7.0873,30.24913 -12.2982,44.90427 -8.1287,26.85295 -14.9955,54.07437 -21.2393,81.42073 1.146,1.06713 5.1027,1.26535 5,-1.1 z m -5.6,-11.4 c 1.8019,-7.99072 4.4952,-15.85584 4.5625,-24.075 6.128,-26.641 16.3487,-52.14425 22.2361,-78.8541 -0.092,-4.5374 7.9353,-15.23341 2.5545,-16.45371 -4.2483,10.43954 -6.4359,21.69459 -10.2815,32.33232 -4.7908,15.71511 -7.6303,32.04779 -13.4857,47.40518 -3.9481,8.38451 -5.1346,18.10069 -8.1725,26.9687 -0.9121,7.42818 -6.3173,16.86047 -2.6456,23.4938 4.2934,0.0813 3.8215,-8.06356 5.2322,-10.81719 z m -11.1,3.5 c 5.84,-23.68624 14.3611,-46.63381 20.6729,-70.20458 2.092,-8.44795 5.3485,-16.77558 5.9833,-25.47979 -4.7353,4.95289 -6.2907,14.76259 -9.2609,21.80557 -8.2817,25.00244 -16.6673,50.08457 -21.8703,75.9413 -0.4407,5.60082 5.5948,1.5542 4.475,-2.0625 z M 1235.6,580 c 0.6498,-2.96224 5.6493,-17.47395 0.4109,-10.51094 -0.2429,6.60259 -6.5638,19.28471 -5.0937,22.28125 1.98,-3.72409 3.6986,-7.65863 4.6828,-11.77031 z m 15.9,-22 c 7.943,-9.47448 -11.7099,7.33258 -1.25,1.18594 z m 20.3,-4.8 c 5.7291,-4.12698 19.2544,-7.61415 17.2,-16.2 -5.5874,-2.983 -14.9987,7.38993 -14.95,10.1875 3.1052,-1.78644 10.6962,-2.67772 3.6844,1.32187 -5.4334,1.46127 -16.8695,8.00868 -16.2344,10.09063 3.5403,-1.58374 6.9082,-3.52694 10.3,-5.4 z m -6.3,-3 c -3.6261,0.65128 -11.0469,9.83897 -3.5,3.7 1.0782,-1.18645 3.0155,-2.06941 3.5,-3.7 z"
       id="path11074"
       style="fill:#ffffff" />
    <path
       d="m 402.8,545.3 c -5.8,-0.4 -5.8,-0.4 -5.8,-8.3 0,-8 -0.6,-9.3 -3,-6.5 -0.7,0.9 -2.6,2.5 -4.1,3.6 -2.8,2 -2.8,2 -4.8,-2.7 -2.4,-5.2 -2.5,-5.8 -1.2,-5 1.4,0.9 7.3,-2 9.9,-4.7 2.4,-2.5 2.4,-2.5 -10.5,-3.1 -21.00071,-0.49638 -34.65536,-8.65352 -50.8,-15.6 -2.86139,3.22116 -5.07142,3.94863 -8.4,5 -3.2,0 -9.3,-5 -13.2,-10.8 -2.4,-3.5 -4.6,-6.5 -5,-6.8 -0.4,-0.2 -1.8,1.4 -3.3,3.6 -4.6,7 -12.40755,1.39245 -14.8,-7.1 -1.29623,-5.99916 -2.69916,-15.01804 -3.2,-26.9 -0.62435,-10.09828 2.74041,-45.09859 10.1,-50.9 0.8,-0.4 1.7,-2.8 2,-5.3 0.5,-4.1 0.3,-4.7 -2.8,-7.2 -1.9,-1.6 -4.9,-4.6 -6.6,-6.8 -3.3,-4 -3.3,-4 0.3,-8.4 2,-2.4 3.9,-4.4 4.3,-4.4 0.4,0 1.3,2 2,4.5 1.7,5.9 7.6,13.6 9.7,12.8 1.3,-0.5 1.1,-1 -0.9,-3.2 -3.5,-3.7 -5.2,-7.6 -6.6,-14.8 -1,-5.1 -0.9,-6.8 0.2,-9.5 1.7,-3.8 6.2,-8.3 9.5,-9.3 1.4,-0.4 2.2,-1.4 2.2,-2.8 0.1,-3.5 1.8,-20.5 2.9,-28.8 2.2,-16.6 8.6,-37.9 11.4,-37.9 1.4,0 9.6,7.7 14.7,14 5.5,6.7 18.9,29.8 25.3,43.5 4.16752,8.86712 23.79165,70.02221 29.7,67 9.88701,-5.33115 16.64958,-10.98612 24.1,-17.1 5.5,-4.4 10.3,-9.6 23.7,-25.7 7.58486,-10.2351 18.72236,-24.90225 21.70084,-36.90042 3.66889,-11.684 6.63793,-15.06547 8.99916,-34.99958 1.12734,-10.43394 2.03791,-8.74044 3.9,-1.9 1.01185,3.77866 1.9,5 3.9,22.1 1.3,11.6 1.6,43.9 0.5,59.5 -0.92865,11.68973 -3.66061,22.33178 -6.2,33.7 2.65664,12.66836 5.05272,32.22758 1.6,48.3 -2.7,11.3 -4.5,16.3 -8.4,24 -12.00163,25.03169 -37.89111,30.85284 -51.5,33.2 -5.9,1 -9.3,2.1 -9.3,2.9 3.59026,5.24631 8.49035,7.98564 13.8,10.9 0.6,0.5 -2.8,6.5 -3.6,6.5 -0.5,0 -2.3,-1.1 -4.2,-2.5 -4,-2.9 -5.2,-2.5 -3.9,1.5 3.4,11 3.2,10.1 2.2,9.8 -0.5,-0.1 -3.4,-0.3 -6.5,-0.5 z m 14.9,-43.5 c 6.7605,-2.23827 13.18113,-5.43633 18.3,-9.7 4.4,-3.9 4.4,-3.9 1.6,-8.1 -8.3,-12.6 -12.1,-21.4 -14.6,-33.7 -1.2,-6 -1.4,-6.2 -3.9,-5.7 -11.69713,3.63934 -27.57941,6.65209 -37.4,2.4 -12.91601,-6.26762 -25.8748,-13.3264 -35.3,-22.9 -3.7,-3.8 -3.7,-3.8 -6.4,-0.8 -2.8,3.2 -7.30839,4.20168 -14.6,4.3 -7.18845,-0.18352 -11.58343,-4.48984 -19.4,-9.9 0,1.3 5.3,10.8 6.5,11.7 0.8,0.6 1.6,2.2 1.7,3.6 -1.22143,4.40252 -4.89057,5.46286 -9.4,6.9 -2.3,0.2 -7.8,-17.5 -7.8,-24.8 0,-1.7 -0.4,-3.1 -0.9,-3.1 -3.61547,7.21447 -3.2478,13.13433 -5,22 -2.61149,15.53392 -2.8336,34.02031 -0.2,44.9 1.8,7.5 3.4,11.9 4.9,13.4 2.2,2.1 2.2,2.1 4.8,-0.4 2.4,-2.4 2.6,-3.5 3.1,-13.5 0.6,-10.2 1.7,-13.9 3.5,-11.1 0.4,0.7 0.8,5.2 0.8,10 -0.31085,10.08426 4.35926,21.15674 13.3,25.3 3.9,1.8 4,1.8 5.7,-0.3 2.8,-3.5 1.4,-13.2 -3.5,-23.7 -9.5,-20.8 -12.3,-29.2 -11.1,-33.9 1,-4.1 2.2,-3.2 3.5,2.6 2.3,10.3 13.5,32.5 19.9,39.3 6.5,7.1 14.5,10.6 32.5,14.5 19.1,4.1 38,4.4 49.4,0.7 z M 445,484 c 4.70784,-4.00859 6.8109,-9.01174 8.81132,-14.6172 4.15659,-9.51383 6.60123,-25.07173 6.58868,-37.5828 0.1,-8.5 -0.7,-10.3 -3.2,-7.3 -2,2.4 -9.2,7 -18.2,11.6 -16,8.1 -14.8,6.7 -12.9,14.9 1,4.4 6.4,18.1 9.7,24.8 3.6,7.1 5.87836,11.02828 9.2,8.2 z m -31.1,-42.1 c 26.3,-7.6 44.1,-24.7 50.7,-48.4 4.92824,-15.63694 6.01371,-37.23625 6.2,-48.5 -0.3,-9.4 -0.3,-9.4 -4.1,-2.4 -6.62183,13.48679 -12.9004,25.4398 -18.8,37.4 -4.8053,10.86127 -12.27975,21.46216 -18.2,30.5 -10.91449,15.11576 -19.87929,22.69244 -32.6,34.2 -1.7,1.3 8,-0.2 16.8,-2.8 z m -27.3,-6.4 c -0.91496,-11.52783 -4.13173,-22.92224 -6.6,-33.9 -1.39142,-8.45388 -24.77795,-64.68312 -27.74667,-68.73641 C 348.5032,327.30325 338.55811,305.43018 332.4,304 c -10.50197,11.19178 -10.31807,31.85872 -10.9,43.7 -0.6,13.2 -0.6,13.2 3,19.8 1.59664,3.79623 3.17653,8.95039 3,10.5 -0.6,4.19246 -0.69526,4.58815 1.80474,5.48815 2.78438,1.61037 5.34513,4.58618 9.99526,11.81185 2.7,4.6 5.2,15.2 4.5,19.1 -0.4,2 0.7,3.6 6.1,8.8 6.80631,6.2545 27.34976,20.01238 35.5,20.8 1.8,0 1.8,-0.6 1.2,-8.5 z M 429.8,403 c 12.70491,-19.76914 26.63347,-42.65815 33.6,-63.9 6.71749,-18.4969 2.67478,-12.87958 -2.3,0 -4.1,10.8 -11.8,22.2 -26.2,39 -12.6,14.8 -32.2,31.9 -42.2,37.1 -6.10489,3.22546 -2.63909,9.29773 -2.2,15.4 0.8,9.8 1.3,12.4 2.5,12.4 12.69955,-9.34777 29.40971,-27.77871 36.8,-40 z m -95.2,17.3 c 3.6,-3.3 3.7,-3.6 3.6,-10.6 0,-5.6 -0.5,-8.1 -2.3,-11.2 -3.4,-6 -7.6,-10.1 -11.9,-11.5 -3.4,-1.1 -4.3,-1 -7.7,0.7 -4.4,2.3 -7,7 -8.3,15 -0.8,4.7 -0.6,6.1 1.2,9.9 2.4,5.3 6.9,9 12.9,10.7 5.8,1.7 8.1,1.2 12.5,-3 z m -13.4,-38.4 c 1.7,-0.9 1.9,-1.7 1.3,-5.7 -0.4,-2.6 -1.3,-5.9 -2.1,-7.4 -1.5,-2.8 -3.4,-3.8 -3.4,-1.6 0,1.8 -3.1,4.8 -5,4.8 -4.9,0 -5.7,-7.9 -1,-9 2.5,-0.6 2.5,-0.6 0.2,-1.4 -3.3,-1.1 -7.29623,0.29832 -9.7,3.7 -2.80084,5.18868 -2.4,11.1 -0.4,16.6 1,3.1 2.9,6.4 4.2,7.3 2.1,1.7 2.3,1.6 6.2,-2.2 2.57229,-3.54103 6.43687,-3.50339 9.7,-5.1 z"
       id="path11088"
       style="fill:#ffffff"
       sodipodi:nodetypes="csccccccccccccccccccscccccccssccccccccccccccccsccccccccccccccsccsccccccccccccccccsccscccscccccccccccccccccccccccccccccccccccccccccssccccccc" />
    <path
       d="m 319.6,396.1 c -1,-1.1 -1.6,-3 -1.4,-4.3 0.6,-4.7 9.8,-2.7 9.8,2.2 0,4 -5.4,5.4 -8.4,2.1 z"
       id="path11090"
       style="fill:#ffffff" />
  </g>
</svg>
